<?xml version="1.0"?>
<svg xmlns="http://www.w3.org/2000/svg" xmlns:xlink="http://www.w3.org/1999/xlink" version="1.1" id="Capa_1" x="0px" y="0px" width="512px" height="512px" viewBox="0 0 234.06 234.061" style="enable-background:new 0 0 234.06 234.061;" xml:space="preserve" class=""><g><g>
	<g>
		<path d="M176.197,211.82l-48.682-9.195c0.996-0.641,1.562-1.84,1.33-3.071c-0.307-1.624-1.869-2.689-3.494-2.385l-10.346,1.954    l-0.028-0.215c-0.171-1.328-1.216-2.428-2.605-2.605c-1.65-0.212-3.159,0.955-3.368,2.605l-0.029,0.215l-10.346-1.954    c-1.504-0.279-3.009,0.625-3.433,2.122c-0.371,1.301,0.181,2.644,1.263,3.335l-48.678,9.194c-0.187,0.036-0.386,0.082-0.57,0.135    c-3.476,0.986-5.493,4.603-4.507,8.077c0.986,3.474,4.601,5.492,8.076,4.507l57.013-16.181l-2.337,18.279    c-0.063,0.532-0.071,1.115,0,1.671c0.463,3.608,3.761,6.16,7.37,5.698c3.606-0.461,6.159-3.761,5.696-7.369l-2.336-18.279    l57.012,16.181c0.183,0.049,0.382,0.098,0.571,0.134c3.552,0.671,6.971-1.663,7.64-5.213    C182.082,215.911,179.748,212.49,176.197,211.82z" data-original="#000000" class="active-path" data-old_color="#052143" fill="#052143"/>
		<path d="M114.46,113.124c43.977,0,79.625-16.413,79.625-36.658c0-12.245-13.039-23.085-33.074-29.743    c-1.994,1.932-4.023,3.938-6.101,6.027c14.058,4.05,23.015,10.168,23.015,17.016c0,12.193-28.414,22.078-63.465,22.078    c-35.05,0-63.463-9.885-63.463-22.078c0-12.196,28.413-22.081,63.463-22.081c3.271,0,6.481,0.087,9.617,0.252    c2.446-2.406,4.938-4.854,7.431-7.285c-5.492-0.552-11.194-0.845-17.047-0.845c-43.974,0-79.624,16.412-79.624,36.659    C34.836,96.711,70.486,113.124,114.46,113.124z" data-original="#000000" class="active-path" data-old_color="#052143" fill="#052143"/>
		<path d="M174.06,109.549c-16.051,7.39-37.217,11.458-59.601,11.458c-22.381,0-43.549-4.067-59.6-11.458    C45.757,105.358,38.729,100.281,34,94.6c-2.273,7.616-3.5,15.688-3.5,24.044c0,23.01,9.259,43.854,24.25,59.021    c0.497-2.662,0.793-4.286,0.793-4.286c1.351-9.33,6.278-18.678,19.335-23c0,0-2.052,43.151,25.641,42.125    c0,0,50.792-5.514,13.333-56.41c0,0,38.052,4.401,35.162,52.686c0.904-6.582,4.623-19.984,19.881-24.309l-5.915,16.031    c0,0-1.696,4.501-1.188,7.495c22.116-15.122,36.631-40.541,36.631-69.353c0-8.356-1.227-16.428-3.5-24.044    C190.191,100.281,183.162,105.357,174.06,109.549z" data-original="#000000" class="active-path" data-old_color="#052143" fill="#052143"/>
		<path d="M143.07,79.83c9.531-2.676,15.579-6.662,15.579-11.115c0-3.548-3.841-6.798-10.222-9.326    c-0.25,0.263-0.508,0.532-0.76,0.797c2.211,2.41,3.45,5.101,3.45,7.938C151.119,72.553,148.106,76.623,143.07,79.83z" data-original="#000000" class="active-path" data-old_color="#052143" fill="#052143"/>
		<path d="M83.065,58.453c-7.908,2.634-12.793,6.26-12.793,10.262c0,4.453,6.048,8.439,15.578,11.115    c-5.034-3.207-8.049-7.276-8.049-11.707C77.802,64.585,79.724,61.275,83.065,58.453z" data-original="#000000" class="active-path" data-old_color="#052143" fill="#052143"/>
		<path d="M203.302,5.152c-1.041-3.742-4.914-5.933-8.66-4.894c-14.875,4.133-34.166,18.428-57.327,42.487    c-9.833,10.211-18.201,19.942-23.577,26.418h18.445c18.507-21.175,47.021-50.016,66.228-55.352    C202.153,12.772,204.343,8.896,203.302,5.152z" data-original="#000000" class="active-path" data-old_color="#052143" fill="#052143"/>
	</g>
</g></g> </svg>
