<?xml version="1.0"?>
<svg xmlns="http://www.w3.org/2000/svg" height="512px" viewBox="-35 0 447 448" width="512px" class=""><g><path d="m306.363281 448v-71.960938c0-.167968.089844-.3125.097657-.480468-.117188-1.210938.050781-2.4375.488281-3.574219l62.976562-155.640625c12.261719-33.464844 11.207031-70.363281-2.953125-103.070312-31.429687-67.328126-98.152344-111.164063-172.425781-113.273438h-6.398437c-21.632813.800781-42.835938 6.292969-62.136719 16.097656-51.441407 25.722656-83.855469 78.386719-83.648438 135.902344v32c0 .191406-.09375.34375-.101562.535156-.054688.542969-.164063 1.078125-.320313 1.601563-.125.519531-.304687 1.027343-.539062 1.511719-.050782.171874-.113282.34375-.183594.511718l-40.71875 67.839844s44.382812-.039062 45.039062 0c2.121094.140625 4.097657 1.121094 5.492188 2.71875 1.398438 1.601562 2.101562 3.691406 1.957031 5.808594l-5.519531 81.441406c-2.335938 11.929688 4.574219 23.734375 16.121094 27.542969 1.0625.316406 2.183594.414062 3.285156.28125l54.632812-5.921875c1.375-.113282 2.753907.140625 4 .738281.828126.347656 1.59375.839844 2.257813 1.445313l.292969.234374c.121094.125.175781.3125.289062.445313.496094.558594.910156 1.183594 1.230469 1.859375.132813.332031.242187.675781.328125 1.023438.183594.425781.324219.871093.425781 1.328124 0 .191407-.054687.359376-.046875.542969.007813.183594.078125.34375.078125.511719v72zm-200-304c0-66.273438 53.726563-120 120-120 66.273438 0 120 53.726562 120 120s-53.726562 120-120 120c-66.242187-.074219-119.925781-53.757812-120-120zm0 0" data-original="#000000" class="active-path" data-old_color="#fff" fill="#fff"/><path d="m226.363281 248c57.4375 0 104-46.5625 104-104s-46.5625-104-104-104-104 46.5625-104 104c.066407 57.410156 46.589844 103.933594 104 104zm-88-112h25.96875l14.335938-50.199219c.886719-3.585937 4.210937-6.023437 7.894531-5.800781 3.652344.089844 6.78125 2.640625 7.601562 6.199219l17.367188 75.265625 31.199219-99.847656c1.09375-3.480469 4.402343-5.78125 8.046875-5.59375 3.644531.1875 6.699218 2.816406 7.425781 6.390624l14.710937 73.585938h41.449219v16h-48c-3.800781 0-7.078125-2.675781-7.839843-6.398438l-9.863282-49.296874-30.664062 98.09375c-1.046875 3.335937-4.136719 5.601562-7.632813 5.601562h-.304687c-3.609375-.136719-6.683594-2.675781-7.496094-6.199219l-17-73.800781-7.46875 26.199219c-.988281 3.445312-4.144531 5.816406-7.730469 5.800781h-32zm0 0" data-original="#000000" class="active-path" data-old_color="#fff" fill="#fff"/></g> </svg>
