<?xml version="1.0"?>
<svg xmlns="http://www.w3.org/2000/svg" xmlns:xlink="http://www.w3.org/1999/xlink" version="1.1" id="Layer_1" x="0px" y="0px" viewBox="0 0 511.999 511.999" style="enable-background:new 0 0 511.999 511.999;" xml:space="preserve" width="512px" height="512px"><g><g>
	<g>
		<circle cx="116.32" cy="462.288" r="11.961" data-original="#000000" class="active-path" data-old_color="#000000" fill="#E8A909"/>
	</g>
</g><g>
	<g>
		<path d="M462.599,381.562c2.42-3.865,3.825-8.429,3.825-13.316v-4.212c0-13.88-11.291-25.17-25.17-25.17h-78.257    c-1.7,0-3.361,0.171-4.967,0.495l14.054-70.82c2.061-10.386,2.295-20.595,0.695-30.345c-2.659-16.209-11.221-35.529-36.907-35.529    c-3.663,0-6.792,2.642-7.406,6.253l-4.93,29.01c-1.948,11.461-4.621,22.378-7.942,32.448    c-9.197,27.887-20.802,42.181-41.39,50.987c-9.892,4.23-17.925,7.849-21.136,9.307h-30.988v-6.005c0-4.15-3.362-7.512-7.512-7.512    h-50.853v-8.105c0-4.15-3.362-7.512-7.512-7.512H29.925c-4.15,0-7.512,3.362-7.512,7.512v44.576c0,4.15,3.363,7.512,7.512,7.512    c4.15,0,7.512-3.363,7.512-7.512v-37.064h111.255v8.105v168.725H37.438V378.665c0-4.15-3.362-7.512-7.512-7.512    c-4.15,0-7.512,3.363-7.512,7.512v122.237c0,4.15,3.363,7.512,7.512,7.512h126.279c4.15,0,7.512-3.362,7.512-7.512v-8.105h50.853    c4.15,0,7.512-3.362,7.512-7.512v-3.521h29.96l16.143,13.069c13.552,10.972,30.618,17.014,48.056,17.014h45.767    c0.053,0,0.104-0.007,0.156-0.008c0.966,0.103,1.944,0.16,2.937,0.16h53.663c15.041,0,27.277-12.236,27.277-27.276    c0-4.514-1.109-8.772-3.059-12.527c13.23-1.871,23.44-13.263,23.44-27.001c0-5.556-1.674-10.728-4.537-15.043    c8.111-4.184,13.672-12.642,13.672-22.38v-4.211C475.559,394.112,470.322,385.866,462.599,381.562z M362.997,353.891h78.257    v-0.001c5.594,0,10.146,4.551,10.146,10.146v4.212c0,5.594-4.551,10.146-10.146,10.146h-78.257    c-5.594,0-10.146-4.551-10.146-10.146v-4.038c0.491-1.824,0.918-3.535,1.286-5.103    C355.873,355.999,359.192,353.891,362.997,353.891z M337.826,484.726c0,4.343,1.026,8.45,2.84,12.099H316.24    c-14.005-0.002-27.713-4.856-38.6-13.669l-18.212-14.743c-1.337-1.083-3.006-1.674-4.727-1.674h-32.62v-21.542    c0-4.15-3.362-7.512-7.512-7.512c-4.15,0-7.512,3.363-7.512,7.512v29.055v3.521h-43.341V332.178h43.341v6.005v81.973v0.001    c0,4.15,3.363,7.512,7.512,7.512c4.15,0,7.512-3.362,7.512-7.512v-0.001v-74.46h32.62c1.084,0,2.155-0.234,3.139-0.687    c0.095-0.043,9.631-4.424,22.272-9.831c24.751-10.584,39.164-27.995,49.752-60.096c3.556-10.783,6.409-22.435,8.484-34.635    l3.756-22.1c8.815,2.056,13.675,9.044,15.847,22.282c1.307,7.967,1.104,16.374-0.606,24.987l-16.016,80.709    c-0.03,0.15-0.056,0.303-0.076,0.456c-0.019,0.14-0.424,2.962-1.418,7.407c-1.002,2.347-1.653,4.876-1.897,7.522    c-5.951,21.245-21.266,57.652-56.33,57.652c-4.149,0-7.512,3.362-7.512,7.512c0,4.15,3.363,7.512,7.512,7.512    c23.252,0,42.635-11.998,56.54-34.819c-0.208,1.302-0.321,2.637-0.321,3.998v4.212c0,7.188,3.033,13.676,7.881,18.267    c-4.869,4.929-7.881,11.696-7.881,19.155c0,7.773,3.273,14.791,8.507,19.763C341.098,469.935,337.826,476.952,337.826,484.726z     M418.766,496.975h-53.663c-6.755,0-12.251-5.496-12.251-12.251s5.496-12.252,12.251-12.252h53.663    c6.755,0,12.252,5.496,12.252,12.252C431.017,491.479,425.521,496.975,418.766,496.975z M439.149,457.448h-20.382h-53.663    c-6.755,0-12.251-5.496-12.251-12.251s5.496-12.251,12.251-12.251h74.046c6.755,0,12.251,5.496,12.251,12.251    C451.4,451.951,445.904,457.448,439.149,457.448z M460.534,407.774c0.001,5.594-4.55,10.146-10.145,10.146h-11.241h-74.046h-2.106    c-5.594,0-10.146-4.552-10.146-10.146v-4.212c0-5.594,4.551-10.146,10.146-10.146h78.257h9.135    c5.594,0,10.146,4.551,10.146,10.146V407.774z" data-original="#000000" class="active-path" data-old_color="#000000" fill="#E8A909"/>
	</g>
</g><g>
	<g>
		<path d="M173.123,108.399c-1.666-5.123-6.012-8.786-11.343-9.561l-34.159-4.964l-15.276-30.953    c-2.385-4.831-7.213-7.832-12.601-7.832c-5.387,0-10.215,3.001-12.6,7.832L71.87,93.874l-34.158,4.964    c-5.332,0.774-9.678,4.437-11.344,9.561c-1.666,5.123-0.304,10.643,3.555,14.407l24.718,24.093l-5.834,34.02    c-0.911,5.311,1.231,10.576,5.588,13.744c2.464,1.79,5.345,2.698,8.247,2.698c2.233,0,4.477-0.539,6.552-1.629l30.552-16.062    l30.552,16.062c4.769,2.507,10.438,2.097,14.796-1.069c4.359-3.166,6.501-8.433,5.59-13.744l-5.835-34.02l24.718-24.095    C173.426,119.043,174.788,113.523,173.123,108.399z M133.995,136.496c-3.313,3.229-4.824,7.878-4.042,12.437l5.588,32.58    l-29.259-15.381c-4.095-2.154-8.984-2.153-13.078-0.001l-29.259,15.382l5.587-32.58c0.782-4.557-0.728-9.206-4.04-12.437    l-23.672-23.073l32.715-4.754c4.576-0.664,8.533-3.537,10.58-7.687l14.629-29.644l14.628,29.642    c2.046,4.15,6.002,7.025,10.58,7.689l32.712,4.754L133.995,136.496z" data-original="#000000" class="active-path" data-old_color="#000000" fill="#E8A909"/>
	</g>
</g><g>
	<g>
		<path d="M331.151,53.309c-1.666-5.123-6.012-8.786-11.343-9.561l-34.159-4.964L270.373,7.832C267.989,3.001,263.161,0,257.773,0    s-10.215,3.001-12.6,7.832l-15.276,30.953l-34.158,4.964c-5.332,0.773-9.678,4.437-11.344,9.561    c-1.666,5.123-0.304,10.643,3.555,14.407l24.719,24.094l-5.835,34.019c-0.911,5.311,1.231,10.576,5.588,13.744    c4.359,3.167,10.027,3.576,14.798,1.07l30.552-16.062l30.552,16.062c2.074,1.091,4.318,1.629,6.552,1.629    c2.901,0,5.783-0.909,8.247-2.698c4.358-3.167,6.5-8.433,5.588-13.743l-5.835-34.02l24.72-24.095    C331.454,63.953,332.816,58.433,331.151,53.309z M292.024,81.407c-3.311,3.227-4.822,7.875-4.042,12.437l5.588,32.58    l-29.26-15.382c-4.093-2.152-8.983-2.152-13.077,0l-29.259,15.382l5.588-32.58c0.782-4.559-0.729-9.208-4.041-12.437    L199.85,58.334l32.713-4.754c4.577-0.664,8.533-3.537,10.581-7.687l14.629-29.643l14.629,29.644    c2.048,4.149,6.004,7.022,10.58,7.686l32.713,4.754L292.024,81.407z" data-original="#000000" class="active-path" data-old_color="#000000" fill="#E8A909"/>
	</g>
</g><g>
	<g>
		<path d="M488.887,108.4c-1.666-5.123-6.012-8.786-11.343-9.561l-34.159-4.964L428.11,62.922c-2.385-4.831-7.212-7.832-12.6-7.832    c-5.388,0-10.215,3.001-12.6,7.832l-15.276,30.953l-34.158,4.964c-5.332,0.774-9.678,4.437-11.344,9.561    c-1.665,5.124-0.303,10.644,3.556,14.406l24.718,24.095l-5.835,34.019c-0.911,5.311,1.23,10.576,5.588,13.744    c4.359,3.167,10.026,3.577,14.798,1.07l30.552-16.062l30.552,16.062c2.074,1.091,4.318,1.629,6.552,1.629    c2.902,0,5.784-0.909,8.247-2.698c4.358-3.167,6.5-8.433,5.588-13.743l-5.835-34.02l24.72-24.094    C489.19,119.043,490.553,113.523,488.887,108.4z M449.759,136.498c-3.31,3.228-4.821,7.875-4.04,12.435l5.588,32.58l-29.26-15.382    c-2.046-1.076-4.292-1.614-6.538-1.614c-2.246,0-4.491,0.538-6.539,1.614l-29.259,15.382l5.588-32.58    c0.782-4.56-0.728-9.208-4.041-12.437l-23.671-23.073l32.711-4.754c4.576-0.664,8.533-3.537,10.581-7.687L415.51,71.34    l14.629,29.644c2.048,4.149,6.004,7.021,10.58,7.686l32.713,4.754L449.759,136.498z" data-original="#000000" class="active-path" data-old_color="#000000" fill="#E8A909"/>
	</g>
</g></g> </svg>
