<?xml version="1.0"?>
<svg xmlns="http://www.w3.org/2000/svg" height="512px" viewBox="0 0 496 496" width="512px"><g><path d="m488 304c4.414062 0 8-3.585938 8-8v-112c0-22.054688-17.945312-40-40-40h-192c-4.414062 0-8 3.585938-8 8v32c0 4.414062 3.585938 8 8 8h112v64h-48c-13.230469 0-24 10.769531-24 24v120h-112v-24c0-4.414062-3.585938-8-8-8h-88v-192h136c4.414062 0 8-3.585938 8-8v-48h72c3.105469 0 5.929688-1.800781 7.246094-4.609375 1.320312-2.816406.890625-6.132813-1.101563-8.511719l-35.730469-42.878906 35.730469-42.878906c1.992188-2.386719 2.414063-5.707032 1.101563-8.511719-1.316406-2.808594-4.140625-4.609375-7.246094-4.609375h-144c-4.414062 0-8 3.585938-8 8v48h-64v-11.054688c4.921875-5.632812 8-12.90625 8-20.945312 0-17.648438-14.351562-32-32-32s-32 14.351562-32 32c0 8.039062 3.078125 15.3125 8 20.945312v315.054688h-40c-4.414062 0-8 3.585938-8 8v112c0 4.414062 3.585938 8 8 8h480c4.414062 0 8-3.585938 8-8v-48c0-4.414062-3.585938-8-8-8h-24v-128zm-222.144531-245.121094c-2.472657 2.96875-2.472657 7.28125 0 10.242188l29.066406 34.878906h-54.921875v-32c0-2.398438-1.113281-4.488281-2.785156-5.953125l.058594-.0625-47.984376-41.984375h105.621094zm-89.855469-25.246094 34.710938 30.367188h-34.710938zm48 46.367188v80h-128v-16h48v-16h-48v-16h48v-16h-48v-16zm-152-64c8.824219 0 16 7.175781 16 16s-7.175781 16-16 16-16-7.175781-16-16 7.175781-16 16-16zm-8 46.863281c2.574219.671875 5.222656 1.136719 8 1.136719s5.425781-.464844 8-1.136719v305.136719h-16zm416 417.136719h-464v-96h160v24c0 4.414062 3.585938 8 8 8h168v24c0 4.414062 3.585938 8 8 8h120zm-64-48h-48v-24c0-4.414062-3.585938-8-8-8h-8v-96h64zm16 0v-136c0-4.414062-3.585938-8-8-8h-80c-4.414062 0-8 3.585938-8 8v104h-16v-120c0-4.40625 3.59375-8 8-8h56c4.414062 0 8-3.585938 8-8v-80c0-4.414062-3.585938-8-8-8h-112v-16h184c13.230469 0 24 10.769531 24 24v104h-16v-80h-16v224zm0 0" data-original="#000000" class="active-path" data-old_color="#000000" fill="#E8A909"/><path d="m416 128c22.054688 0 40-17.945312 40-40v-16c0-22.054688-17.945312-40-40-40s-40 17.945312-40 40v16c0 22.054688 17.945312 40 40 40zm-24-56c0-13.230469 10.769531-24 24-24s24 10.769531 24 24v16c0 13.230469-10.769531 24-24 24s-24-10.769531-24-24zm0 0" data-original="#000000" class="active-path" data-old_color="#000000" fill="#E8A909"/></g> </svg>
