<?xml version="1.0"?>
<svg xmlns="http://www.w3.org/2000/svg" height="512px" viewBox="0 0 480.04698 480" width="512px"><g><path d="m144.019531 223.894531v128c0 4.417969 3.582031 8 8 8h192c4.417969 0 8-3.582031 8-8v-128c0-4.417969-3.582031-8-8-8h-192c-4.417969 0-8 3.582031-8 8zm98.59375 93.898438c3.058594 2.804687 7.757813 2.804687 10.816407 0l14.304687-13.097657 52.285156 39.199219h-144l52.289063-39.199219zm37.121094-24.113281 56.285156-51.601563v93.816406zm-31.714844 7.367187-75.429687-69.152344h150.863281zm-31.710937-7.367187-56.289063 42.214843v-93.816406zm0 0" data-original="#000000" class="active-path" data-old_color="#000000" fill="#E8A909"/><path d="m48.019531 135.894531h96c3.910157 0 7.246094-2.828125 7.890625-6.6875l8-48c.382813-2.316406-.269531-4.6875-1.789062-6.480469-1.519532-1.796874-3.75-2.828124-6.101563-2.832031h-24v-8c0-13.253906-10.746093-24-24-24-13.253906 0-24 10.746094-24 24v8h-32c-4.417969 0-8 3.582031-8 8v48c0 4.417969 3.582031 8 8 8zm48-56v-16c0-4.417969 3.582031-8 8-8s8 3.582031 8 8v16c0 4.417969 3.582031 8 8 8h22.554688l-5.328125 32h-49.226563v-32c4.417969 0 8-3.582031 8-8zm-40 8h16v32h-16zm0 0" data-original="#000000" class="active-path" data-old_color="#000000" fill="#E8A909"/><path d="m96.019531 191.894531c12.09375.019531 24.078125-2.265625 35.3125-6.734375l50.488281 14.398438c.714844.210937 1.457032.324218 2.199219.335937 2.464844 0 4.789063-1.132812 6.304688-3.074219 1.515625-1.941406 2.050781-4.472656 1.457031-6.859374l-11.890625-47.546876c20.953125-37.851562 13.972656-85.046874-17.039063-115.21875-31.011718-30.167968-78.378906-35.847656-115.644531-13.863281-37.261719 21.984375-55.203125 66.191407-43.792969 107.925781 11.410157 41.734376 49.339844 70.667969 92.605469 70.636719zm0-176c28.847657-.046875 55.476563 15.460938 69.667969 40.574219s13.738281 55.925781-1.1875 80.609375c-1.097656 1.824219-1.425781 4.007813-.910156 6.074219l9.3125 37.238281-39.859375-11.382813c-1.773438-.507812-3.671875-.382812-5.367188.351563-29.84375 12.867187-64.503906 6.398437-87.699219-16.359375-23.195312-22.761719-30.320312-57.292969-18.023437-87.375s41.570313-49.734375 74.066406-49.730469zm0 0" data-original="#000000" class="active-path" data-old_color="#000000" fill="#E8A909"/><path d="m392.019531 15.894531c-31.128906-.050781-59.960937 16.375-75.792969 43.179688-15.832031 26.800781-16.300781 59.980469-1.230468 87.222656l-10.734375 42.933594c-.597657 2.390625-.058594 4.921875 1.457031 6.859375 1.515625 1.941406 3.839844 3.078125 6.300781 3.078125.746094-.003907 1.484375-.105469 2.199219-.304688l45.664062-13.054687c32.949219 12.9375 70.445313 4.871094 95.160157-20.46875 24.714843-25.339844 31.84375-63.023438 18.089843-95.640625-13.753906-32.613281-45.714843-53.8125-81.113281-53.804688zm0 160c-9.796875.015625-19.496093-1.984375-28.488281-5.878906-1.695312-.734375-3.589844-.859375-5.367188-.351563l-35.023437 10.007813 8.160156-32.640625c.515625-2.066406.1875-4.25-.914062-6.070312-16.804688-28.023438-12.613281-63.851563 10.207031-87.238282 22.816406-23.386718 58.535156-28.457031 86.960938-12.34375 28.425781 16.113282 42.421874 49.359375 34.074218 80.953125-8.34375 31.589844-36.933594 53.589844-69.609375 53.5625zm0 0" data-original="#000000" class="active-path" data-old_color="#000000" fill="#E8A909"/><path d="m443.09375 384.046875-45.953125-38.304687c-2.386719-1.984376-5.707031-2.414063-8.515625-1.09375-2.8125 1.316406-4.605469 4.140624-4.605469 7.246093v32h-48c-17.671875 0-32 14.328125-32 32v32c0 17.675781 14.328125 32 32 32h104c17.675781 0 32-14.324219 32-32v-32c0-16.480469-12.523437-30.265625-28.925781-31.847656zm12.925781 63.847656c0 8.835938-7.164062 16-16 16h-104c-8.835937 0-16-7.164062-16-16v-32c0-8.835937 7.164063-16 16-16h56c4.417969 0 8-3.582031 8-8v-22.917969l34.882813 29.070313c1.4375 1.195313 3.246094 1.851563 5.117187 1.847656 8.835938 0 16 7.164063 16 16zm0 0" data-original="#000000" class="active-path" data-old_color="#000000" fill="#E8A909"/><path d="m428.019531 419.894531c-6.625 0-12 5.375-12 12 0 6.628907 5.375 12 12 12 6.628907 0 12-5.371093 12-12 0-6.625-5.371093-12-12-12zm0 16c-2.207031 0-4-1.789062-4-4 0-2.207031 1.792969-4 4-4 2.210938 0 4 1.792969 4 4 0 2.210938-1.789062 4-4 4zm0 0" data-original="#000000" class="active-path" data-old_color="#000000" fill="#E8A909"/><path d="m388.019531 419.894531c-6.625 0-12 5.375-12 12 0 6.628907 5.375 12 12 12 6.628907 0 12-5.371093 12-12 0-6.625-5.371093-12-12-12zm0 16c-2.207031 0-4-1.789062-4-4 0-2.207031 1.792969-4 4-4 2.210938 0 4 1.792969 4 4 0 2.210938-1.789062 4-4 4zm0 0" data-original="#000000" class="active-path" data-old_color="#000000" fill="#E8A909"/><path d="m348.019531 419.894531c-6.625 0-12 5.375-12 12 0 6.628907 5.375 12 12 12 6.628907 0 12-5.371093 12-12 0-6.625-5.371093-12-12-12zm0 16c-2.207031 0-4-1.789062-4-4 0-2.207031 1.792969-4 4-4 2.210938 0 4 1.792969 4 4 0 2.210938-1.789062 4-4 4zm0 0" data-original="#000000" class="active-path" data-old_color="#000000" fill="#E8A909"/><path d="m429.277344 62.847656c-11.429688-5.429687-24.980469-3.679687-34.65625 4.472656l-2.601563 2.175782-2.597656-2.160156c-13.84375-11.375-34.269531-9.4375-45.730469 4.332031-11.460937 13.769531-9.65625 34.207031 4.042969 45.753906l39.199219 32.640625c2.964844 2.472656 7.273437 2.472656 10.238281 0l39.199219-32.640625c8.554687-7.140625 12.867187-18.152344 11.441406-29.203125-1.421875-11.050781-8.390625-20.609375-18.472656-25.347656zm-3.199219 42.265625-34.058594 28.382813-34.039062-28.359375c-3.796875-3.164063-5.984375-7.859375-5.960938-12.800781-.089843-6.453126 3.65625-12.339844 9.535157-14.992188 2.230468-1.054688 4.664062-1.601562 7.128906-1.601562 3.847656.023437 7.566406 1.402343 10.496094 3.898437l7.722656 6.398437c2.964844 2.472657 7.273437 2.472657 10.238281 0l7.71875-6.398437c4.945313-4.148437 11.851563-5.042969 17.691406-2.296875 5.839844 2.75 9.554688 8.640625 9.507813 15.097656-.015625 4.902344-2.214844 9.546875-6 12.671875zm0 0" data-original="#000000" class="active-path" data-old_color="#000000" fill="#E8A909"/><path d="m132.972656 446.183594c.308594-.246094.605469-.515625.878906-.800782l52.640626-56c2.191406-2.324218 2.789062-5.726562 1.523437-8.660156-1.265625-2.929687-4.152344-4.828125-7.347656-4.828125h-44.167969c-14.558594-29.347656-47.09375-45.167969-79.167969-38.492187-32.074219 6.671875-55.597656 34.160156-57.2421872 66.878906-1.6406248 32.71875 19.0117182 62.421875 50.2578122 72.277344 31.242188 9.851562 65.199219-2.632813 82.625-30.375zm-116.953125-38.289063c.035157-26.777343 19.019531-49.785156 45.304688-54.898437 26.285156-5.113282 52.511719 9.097656 62.585937 33.90625 1.222656 3.019531 4.15625 4.996094 7.414063 4.992187h30.839843l-37.421874 39.808594c-1.621094.695313-2.964844 1.910156-3.824219 3.449219-12.425781 22.253906-38.3125 33.3125-62.980469 26.902344-24.667969-6.410157-41.898438-28.671876-41.917969-54.160157zm0 0" data-original="#000000" class="active-path" data-old_color="#000000" fill="#E8A909"/><path d="m80.019531 431.894531v-16h16v-16h-16v-16h-16v16h-16v16h16v16zm0 0" data-original="#000000" class="active-path" data-old_color="#000000" fill="#E8A909"/><path d="m80.019531 231.894531h48v16h-48zm0 0" data-original="#000000" class="active-path" data-old_color="#000000" fill="#E8A909"/><path d="m48.019531 263.894531h80v16h-80zm0 0" data-original="#000000" class="active-path" data-old_color="#000000" fill="#E8A909"/><path d="m80.019531 295.894531h48v16h-48zm0 0" data-original="#000000" class="active-path" data-old_color="#000000" fill="#E8A909"/></g> </svg>
