<?xml version="1.0" encoding="utf-8"?>
<!-- Generator: Adobe Illustrator 22.0.1, SVG Export Plug-In . SVG Version: 6.00 Build 0)  -->
<svg version="1.1" xmlns="http://www.w3.org/2000/svg" xmlns:xlink="http://www.w3.org/1999/xlink" x="0px" y="0px"
	 viewBox="0 0 500 500" style="enable-background:new 0 0 500 500;" xml:space="preserve">
<style type="text/css">
	.st0{display:none;}
	.st1{display:inline;}
	.st2{fill:#D7E1EB;}
	.st3{fill:#606060;}
	.st4{display:inline;fill:#2A083B;}
	.st5{fill:#FFFFFF;}
	.st6{fill:#411718;}
	.st7{display:inline;fill:#D65154;}
	.st8{fill:#D65154;}
	.st9{display:inline;fill:#E76162;}
	.st10{fill:#2A083B;}
	.st11{display:inline;fill:#FBD856;}
	.st12{display:inline;fill:#E3A22C;}
	.st13{fill:#49224F;}
	.st14{display:inline;fill:#49224F;}
	.st15{display:inline;fill:#14B194;}
	.st16{fill:#41E0A9;}
	.st17{fill:#149485;}
	.st18{display:inline;fill:#78CFC7;}
	.st19{fill:#E1AC42;}
	.st20{fill:#14B194;}
	.st21{fill:#1F1D1E;}
	.st22{fill:#F8DB75;}
	.st23{fill:#EC8E43;}
	.st24{fill:#AC5E00;}
	.st25{clip-path:url(#SVGID_2_);}
	.st26{fill:#FBD856;}
	.st27{fill:#1D262D;}
</style>
<g id="BACKGROUND" class="st0">
</g>
<g id="OBJECTS">
	<g class="st0">
		<g class="st1">
			<path class="st2" d="M220.3,132.8c0.7,0,1.5,0,1.9-0.9c0.3-0.6,0.2-1.3-0.1-1.8c-3.2-6.3-9.7-10.2-16.2-12.7
				c-13.9-5.4-29.2-5.8-44-4.8c-0.3,0-0.4,0.5-0.1,0.6C168,116.3,201.7,132.7,220.3,132.8z"/>
			<path class="st2" d="M237.4,89.3c0.8-0.6,1.6-1.2,1.3-2.4c-0.2-0.8-0.8-1.5-1.5-1.9c-8.2-4.2-18-3.5-26.9-1.2
				C191.6,88.8,175,100,160,112.4c-0.3,0.3-0.1,0.8,0.3,0.7C169.4,111.6,217.6,103.5,237.4,89.3z"/>
			<g>
				<path class="st3" d="M161.8,112.1c23.4-10.8,47.1-26.5,73.5-27.6c0.3,0,0.3-0.5,0-0.5c-11.8,0.4-23.4,4.2-34.2,8.8
					c-13.4,5.8-26.5,12.4-39.5,19C161.5,111.9,161.6,112.1,161.8,112.1L161.8,112.1z"/>
			</g>
			<g>
				<path class="st3" d="M214.1,83.3c-1.8,1.9-3.2,4-4.6,6.2c-0.1,0.1,0,0.2,0.1,0.3c4.2,2,7.5,5.3,12,6.7c0.1,0,0.2-0.1,0.1-0.2
					c-2.4-1.5-5-2.6-7.4-4.2c-0.7-0.5-1.4-0.9-2-1.3c-0.4-0.2-1.7-0.7-1.9-1.1c-0.7-1.3,3.1-5,4-6.1
					C214.5,83.4,214.3,83.1,214.1,83.3L214.1,83.3z"/>
			</g>
			<g>
				<path class="st3" d="M216.8,82.6c-1.1,1.8-2.1,3.6-3.2,5.4c-0.1,0.1,0,0.2,0.1,0.3c3.9,2,7.7,4.2,11.7,5.9
					c0.1,0,0.2-0.1,0.1-0.1c-2.6-1.6-5.3-3-8.1-4.4c-1.3-0.7-3.2-1-2.8-2.7c0.3-1.4,1.8-3.1,2.4-4.4
					C217.1,82.6,216.9,82.5,216.8,82.6L216.8,82.6z"/>
			</g>
			<g>
				<path class="st3" d="M225.2,88.6c-1,0.1-0.3,1.8,0.5,1c0.9-0.9-0.9-1.9-1.4-0.9c-0.2,0.5,0.1,1.1,0.7,1.1c0.6,0,1.1-0.5,0.9-1
					c-0.1-0.5-0.8-0.8-1.1-0.3c-0.2,0.4,0.1,1.1,0.6,0.8C225.9,89.2,225.7,88.5,225.2,88.6c0.1,0.5,0,0.6-0.3,0.5
					c0-0.3,0.2-0.4,0.4-0.3c0.2,0.4,0.1,0.6-0.3,0.5c0-0.1,0-0.2,0.1-0.3C225.4,88.9,225.4,88.6,225.2,88.6L225.2,88.6z"/>
			</g>
			<g>
				<path class="st3" d="M230.5,86.7c-0.1,0.6,0.6,0.9,1,0.4c0.4-0.5-0.1-1.1-0.7-0.9c-0.5,0.2-0.8,0.9-0.3,1.2
					c0.4,0.3,1.1-0.1,1.1-0.6c0-0.5-0.8-0.5-0.7,0c0-0.1,0.1-0.1,0.1-0.2C231,86.4,230.6,86.4,230.5,86.7L230.5,86.7z"/>
			</g>
			<g>
				<path class="st3" d="M221.2,84.1c-0.4,0.7,0.8,1.3,1,0.5c0.1-0.3,0-0.8-0.4-0.9c-0.4-0.2-0.9,0-1.1,0.4c-0.1,0.1,0,0.3,0,0.4
					c0.4,0.5,1.1,0.2,1.3-0.3c0.1-0.2-0.1-0.4-0.3-0.4c-0.4,0-1.1,0.4-0.9,0.9c0.2,0.4,0.7,0.4,0.9,0c0.2-0.3-0.2-0.6-0.5-0.5
					c0,0,0.1,0,0.1,0c0,0.1,0.1,0.2,0.1,0.2c0.1,0,0.2-0.1,0.3-0.1c-0.1-0.1-0.3-0.2-0.4-0.3c-0.1,0.1-0.2,0.1-0.2,0
					c0,0.1,0,0.2,0,0.4c0.1-0.2,0.3-0.2,0.4-0.1c-0.1,0.4-0.2,0.4-0.2,0.1C221.5,84,221.3,83.9,221.2,84.1L221.2,84.1z"/>
			</g>
			<g>
				<path class="st3" d="M226.8,83.9c0,0,0.1-0.1,0.1-0.1c0.2-0.1,0.2-0.3,0-0.4c0,0-0.1-0.1-0.1-0.1c-0.2-0.2-0.5,0.1-0.5,0.3
					S226.6,84,226.8,83.9L226.8,83.9z"/>
			</g>
			<g>
				<path class="st3" d="M206.4,94.7c-0.3,0.3-0.5,0.9,0,1.1c0.4,0.2,0.8-0.1,1-0.4c0.4-0.9-0.8-1.8-1.4-1c-0.6,0.8,0.7,1.8,1.2,1.1
					c0.2-0.4-0.1-1-0.5-1.1c-0.5-0.1-1,0.4-0.8,0.9c0.1,0.4,0.6,0.3,0.7,0c0,0,0-0.1,0-0.1c0.1-0.1,0.1-0.1,0.2-0.2
					c-0.3,0.2-0.1-0.7,0.2-0.1c0.2,0.3-0.4,0.7-0.2,0.1C206.9,94.8,206.6,94.5,206.4,94.7L206.4,94.7z"/>
			</g>
			<g>
				<path class="st3" d="M198.9,97.7C198.9,97.7,198.9,97.7,198.9,97.7c-0.2-0.2-0.4-0.2-0.6-0.1c0,0-0.1,0.1-0.1,0.1
					c-0.1,0.1-0.1,0.4,0.1,0.4c0,0,0.1,0,0.1,0.1c0.1,0.1,0.3,0,0.4-0.2c0,0,0-0.1,0.1-0.1C199,97.9,199,97.8,198.9,97.7L198.9,97.7
					z"/>
			</g>
			<g>
				<path class="st3" d="M204.5,88.3c-0.4,0.5,0.1,1.3,0.7,1c0.6-0.3,0.5-1.2-0.2-1.2c-0.7,0-0.9,0.9-0.3,1.2c0.7,0.4,1.2-0.5,0.7-1
					c-0.1-0.1-0.3-0.1-0.5-0.1c-0.1,0-0.1,0.1-0.2,0.2c-0.1,0.2,0.1,0.3,0,0.4c0.1-0.1,0.1-0.2,0.2-0.2c0,0.1,0.1,0.2,0.1,0.3
					c-0.1-0.1-0.1-0.1-0.2-0.2c0.1,0,0.1-0.1,0.2-0.1C205.1,88.3,204.7,88.1,204.5,88.3L204.5,88.3z"/>
			</g>
			<g>
				<path class="st3" d="M196.7,93.7c0.7,0,0.7-1,0-1C196,92.7,196,93.7,196.7,93.7L196.7,93.7z"/>
			</g>
			<g>
				<path class="st3" d="M163.8,113.9c18.2,1.2,38.1,4.1,53.4,14.7c0.1,0,0.1-0.1,0.1-0.1c-6.8-5.3-15.4-8.2-23.6-10.4
					c-9.7-2.6-19.8-4.2-29.9-4.5C163.6,113.5,163.6,113.9,163.8,113.9L163.8,113.9z"/>
			</g>
			<g>
				<path class="st3" d="M213.7,121.3c-1.8-0.3-3.6-0.4-5.5-0.4c-0.9,0-3-0.2-3.7,0.6c-0.6,0.6-0.1,1.7,0.1,2.3
					c0.5,1.7,1.2,3.5,2.2,4.9c0.1,0.1,0.3,0,0.2-0.1c-0.4-1-0.9-1.9-1.3-2.9c-0.6-1.5-1.8-3.4,0.4-4.3c0.9-0.3,2.4-0.1,3.4-0.1
					c1.4,0,2.7,0.2,4.1,0.3C213.9,121.6,213.9,121.3,213.7,121.3L213.7,121.3z"/>
			</g>
			<g>
				<path class="st3" d="M210.9,119.6c-3.4-0.6-7-0.2-10.2,0.8c-0.1,0-0.2,0.2-0.1,0.3c1.2,2,2,4.2,3,6.3c0.1,0.1,0.2,0,0.2-0.1
					c-0.3-1.2-0.8-2.2-1.3-3.3c-0.4-1-1.8-2.5-0.7-3.1c1.2-0.7,3.3-0.6,4.6-0.7c1.5-0.1,2.9,0,4.4,0
					C211,119.8,211.1,119.6,210.9,119.6L210.9,119.6z"/>
			</g>
			<g>
				<path class="st3" d="M209.1,126.5c-0.3,0.5-0.1,1.2,0.4,1.5c0.3,0.2,0.6,0.1,0.8-0.1c0.4-0.4,0.5-1.1,0.1-1.6
					c-0.4-0.5-1.2-0.4-1.5,0.2c-0.2,0.3,0.1,0.8,0.5,0.8c0.1,0,0.1,0,0.2,0c0.2,0,0.1-0.1-0.1-0.3c0.3,0,0.5-0.1,0.8-0.1
					c0.1,0.2,0.1,0.3,0.1,0.1C210.5,126.3,209.5,125.9,209.1,126.5L209.1,126.5z"/>
			</g>
			<g>
				<path class="st3" d="M214.1,129.3c0.6,0,0.6-0.9,0-0.9C213.5,128.4,213.5,129.3,214.1,129.3L214.1,129.3z"/>
			</g>
			<g>
				<path class="st3" d="M212.6,123.7c0.2,0.1,0.4,0.1,0.7,0.1c0.1,0,0.2-0.1,0.2-0.2c0-0.3,0-0.5-0.2-0.7
					C212.8,122.2,211.8,123.3,212.6,123.7L212.6,123.7z"/>
			</g>
			<g>
				<path class="st3" d="M216.5,125.5c0,0-0.1,0-0.1,0c-0.4-0.1-0.4,0.7,0,0.7c0,0,0.1,0,0.1,0C216.9,126.1,216.9,125.5,216.5,125.5
					L216.5,125.5z"/>
			</g>
			<g>
				<path class="st3" d="M197,123.5c0.9,0,0.9-1.4,0-1.4C196.1,122.1,196.1,123.5,197,123.5L197,123.5z"/>
			</g>
			<g>
				<path class="st3" d="M192.1,122.3c0.4,0,0.4-0.6,0-0.6C191.7,121.7,191.7,122.3,192.1,122.3L192.1,122.3z"/>
			</g>
			<g>
				<path class="st3" d="M199.4,117.1c0,0-0.1,0-0.1,0c0.1,0.1,0.2,0.1,0.3,0.2c-0.1-0.2-0.2-0.2-0.3-0.3c-0.4-0.2-0.9,0-0.9,0.5
					c0,0.5,0.5,0.7,0.9,0.5c0.2-0.1,0.3-0.2,0.3-0.3c-0.1,0.1-0.2,0.1-0.3,0.2c0,0,0.1,0,0.1,0C199.8,117.8,199.8,117.2,199.4,117.1
					L199.4,117.1z"/>
			</g>
			<g>
				<path class="st3" d="M194.2,116.9c0.4,0,0.4-0.7,0-0.7C193.8,116.3,193.8,116.9,194.2,116.9L194.2,116.9z"/>
			</g>
		</g>
		<g class="st1">
			<path class="st2" d="M101,132.8c-0.7,0-1.5,0-1.9-0.9c-0.3-0.6-0.2-1.3,0.1-1.8c3.2-6.3,9.7-10.2,16.2-12.7
				c13.9-5.4,29.2-5.8,44-4.8c0.3,0,0.4,0.5,0.1,0.6C153.3,116.3,119.6,132.7,101,132.8z"/>
			<path class="st2" d="M83.9,89.3c-0.8-0.6-1.6-1.2-1.3-2.4c0.2-0.8,0.8-1.5,1.5-1.9c8.2-4.2,18-3.5,26.9-1.2
				c18.8,4.9,35.4,16.1,50.4,28.5c0.3,0.3,0.1,0.8-0.3,0.7C151.9,111.6,103.7,103.5,83.9,89.3z"/>
			<g>
				<path class="st3" d="M159.5,112.1c-23.4-10.8-47.1-26.5-73.5-27.6c-0.3,0-0.3-0.5,0-0.5c11.8,0.4,23.4,4.2,34.2,8.8
					c13.4,5.8,26.5,12.4,39.5,19C159.8,111.9,159.7,112.1,159.5,112.1L159.5,112.1z"/>
			</g>
			<g>
				<path class="st3" d="M107.2,83.3c1.8,1.9,3.2,4,4.6,6.2c0.1,0.1,0,0.2-0.1,0.3c-4.2,2-7.5,5.3-12,6.7c-0.1,0-0.2-0.1-0.1-0.2
					c2.4-1.5,5-2.6,7.4-4.2c0.7-0.5,1.4-0.9,2-1.3c0.4-0.2,1.7-0.7,1.9-1.1c0.7-1.3-3.1-5-4-6.1C106.8,83.4,107,83.1,107.2,83.3
					L107.2,83.3z"/>
			</g>
			<g>
				<path class="st3" d="M104.5,82.6c1.1,1.8,2.1,3.6,3.2,5.4c0.1,0.1,0,0.2-0.1,0.3c-3.9,2-7.7,4.2-11.7,5.9
					c-0.1,0-0.2-0.1-0.1-0.1c2.6-1.6,5.3-3,8.1-4.4c1.3-0.7,3.2-1,2.8-2.7c-0.3-1.4-1.8-3.1-2.4-4.4
					C104.2,82.6,104.4,82.5,104.5,82.6L104.5,82.6z"/>
			</g>
			<g>
				<path class="st3" d="M96.1,88.6c1,0.1,0.3,1.8-0.5,1c-0.9-0.9,0.9-1.9,1.4-0.9c0.2,0.5-0.1,1.1-0.7,1.1c-0.6,0-1.1-0.5-0.9-1
					c0.1-0.5,0.8-0.8,1.1-0.3c0.2,0.4-0.1,1.1-0.6,0.8C95.4,89.2,95.5,88.5,96.1,88.6c-0.1,0.5,0,0.6,0.3,0.5c0-0.3-0.2-0.4-0.4-0.3
					c-0.2,0.4-0.1,0.6,0.3,0.5c0-0.1,0-0.2-0.1-0.3C95.8,88.9,95.9,88.6,96.1,88.6L96.1,88.6z"/>
			</g>
			<g>
				<path class="st3" d="M90.8,86.7c0.1,0.6-0.6,0.9-1,0.4c-0.4-0.5,0.1-1.1,0.7-0.9c0.5,0.2,0.8,0.9,0.3,1.2
					c-0.4,0.3-1.1-0.1-1.1-0.6c0-0.5,0.8-0.5,0.7,0c0-0.1-0.1-0.1-0.1-0.2C90.3,86.4,90.7,86.4,90.8,86.7L90.8,86.7z"/>
			</g>
			<g>
				<path class="st3" d="M100.1,84.1c0.4,0.7-0.8,1.3-1,0.5c-0.1-0.3,0-0.8,0.4-0.9c0.4-0.2,0.9,0,1.1,0.4c0.1,0.1,0,0.3,0,0.4
					c-0.4,0.5-1.1,0.2-1.3-0.3c-0.1-0.2,0.1-0.4,0.3-0.4c0.4,0,1.1,0.4,0.9,0.9c-0.2,0.4-0.7,0.4-0.9,0c-0.2-0.3,0.2-0.6,0.5-0.5
					c0,0-0.1,0-0.1,0c0,0.1-0.1,0.2-0.1,0.2c-0.1,0-0.2-0.1-0.3-0.1c0.1-0.1,0.3-0.2,0.4-0.3c0.1,0.1,0.2,0.1,0.2,0
					c0,0.1,0,0.2,0,0.4c-0.1-0.2-0.3-0.2-0.4-0.1c0.1,0.4,0.2,0.4,0.2,0.1C99.8,84,100,83.9,100.1,84.1L100.1,84.1z"/>
			</g>
			<g>
				<path class="st3" d="M94.5,83.9c0,0-0.1-0.1-0.1-0.1c-0.2-0.1-0.2-0.3,0-0.4c0,0,0.1-0.1,0.1-0.1c0.2-0.2,0.5,0.1,0.5,0.3
					S94.7,84,94.5,83.9L94.5,83.9z"/>
			</g>
			<g>
				<path class="st3" d="M114.9,94.7c0.3,0.3,0.5,0.9,0,1.1c-0.4,0.2-0.8-0.1-1-0.4c-0.4-0.9,0.8-1.8,1.4-1c0.6,0.8-0.7,1.8-1.2,1.1
					c-0.2-0.4,0.1-1,0.5-1.1c0.5-0.1,1,0.4,0.8,0.9c-0.1,0.4-0.6,0.3-0.7,0c0,0,0-0.1,0-0.1c-0.1-0.1-0.1-0.1-0.2-0.2
					c0.3,0.2,0.1-0.7-0.2-0.1c-0.2,0.3,0.4,0.7,0.2,0.1C114.4,94.8,114.7,94.5,114.9,94.7L114.9,94.7z"/>
			</g>
			<g>
				<path class="st3" d="M122.4,97.7C122.4,97.7,122.4,97.7,122.4,97.7c0.2-0.2,0.4-0.2,0.6-0.1c0,0,0.1,0.1,0.1,0.1
					c0.1,0.1,0.1,0.4-0.1,0.4c0,0-0.1,0-0.1,0.1c-0.1,0.1-0.3,0-0.4-0.2c0,0,0-0.1-0.1-0.1C122.3,97.9,122.3,97.8,122.4,97.7
					L122.4,97.7z"/>
			</g>
			<g>
				<path class="st3" d="M116.8,88.3c0.4,0.5-0.1,1.3-0.7,1c-0.6-0.3-0.5-1.2,0.2-1.2c0.7,0,0.9,0.9,0.3,1.2c-0.7,0.4-1.2-0.5-0.7-1
					c0.1-0.1,0.3-0.1,0.5-0.1c0.1,0,0.1,0.1,0.2,0.2c0.1,0.2-0.1,0.3,0,0.4c-0.1-0.1-0.1-0.2-0.2-0.2c0,0.1-0.1,0.2-0.1,0.3
					c0.1-0.1,0.1-0.1,0.2-0.2c-0.1,0-0.1-0.1-0.2-0.1C116.2,88.3,116.6,88.1,116.8,88.3L116.8,88.3z"/>
			</g>
			<g>
				<path class="st3" d="M124.6,93.7c-0.7,0-0.7-1,0-1C125.3,92.7,125.3,93.7,124.6,93.7L124.6,93.7z"/>
			</g>
			<g>
				<path class="st3" d="M157.5,113.9c-18.2,1.2-38.1,4.1-53.4,14.7c-0.1,0-0.1-0.1-0.1-0.1c6.8-5.3,15.4-8.2,23.6-10.4
					c9.7-2.6,19.8-4.2,29.9-4.5C157.7,113.5,157.7,113.9,157.5,113.9L157.5,113.9z"/>
			</g>
			<g>
				<path class="st3" d="M107.6,121.3c1.8-0.3,3.6-0.4,5.5-0.4c0.9,0,3-0.2,3.7,0.6c0.6,0.6,0.1,1.7-0.1,2.3
					c-0.5,1.7-1.2,3.5-2.2,4.9c-0.1,0.1-0.3,0-0.2-0.1c0.4-1,0.9-1.9,1.3-2.9c0.6-1.5,1.8-3.4-0.4-4.3c-0.9-0.3-2.4-0.1-3.4-0.1
					c-1.4,0-2.7,0.2-4.1,0.3C107.4,121.6,107.4,121.3,107.6,121.3L107.6,121.3z"/>
			</g>
			<g>
				<path class="st3" d="M110.4,119.6c3.4-0.6,7-0.2,10.2,0.8c0.1,0,0.2,0.2,0.1,0.3c-1.2,2-2,4.2-3,6.3c-0.1,0.1-0.2,0-0.2-0.1
					c0.3-1.2,0.8-2.2,1.3-3.3c0.4-1,1.8-2.5,0.7-3.1c-1.2-0.7-3.3-0.6-4.6-0.7c-1.5-0.1-2.9,0-4.4,0
					C110.3,119.8,110.2,119.6,110.4,119.6L110.4,119.6z"/>
			</g>
			<g>
				<path class="st3" d="M112.1,126.5c0.3,0.5,0.1,1.2-0.4,1.5c-0.3,0.2-0.6,0.1-0.8-0.1c-0.4-0.4-0.5-1.1-0.1-1.6
					c0.4-0.5,1.2-0.4,1.5,0.2c0.2,0.3-0.1,0.8-0.5,0.8c-0.1,0-0.1,0-0.2,0c-0.2,0-0.1-0.1,0.1-0.3c-0.3,0-0.5-0.1-0.8-0.1
					c-0.1,0.2-0.1,0.3-0.1,0.1C110.8,126.3,111.8,125.9,112.1,126.5L112.1,126.5z"/>
			</g>
			<g>
				<path class="st3" d="M107.2,129.3c-0.6,0-0.6-0.9,0-0.9C107.7,128.4,107.7,129.3,107.2,129.3L107.2,129.3z"/>
			</g>
			<g>
				<path class="st3" d="M108.7,123.7c-0.2,0.1-0.4,0.1-0.7,0.1c-0.1,0-0.2-0.1-0.2-0.2c0-0.3,0-0.5,0.2-0.7
					C108.5,122.2,109.5,123.3,108.7,123.7L108.7,123.7z"/>
			</g>
			<g>
				<path class="st3" d="M104.8,125.5c0,0,0.1,0,0.1,0c0.4-0.1,0.4,0.7,0,0.7c0,0-0.1,0-0.1,0C104.4,126.1,104.4,125.5,104.8,125.5
					L104.8,125.5z"/>
			</g>
			<g>
				<path class="st3" d="M124.3,123.5c-0.9,0-0.9-1.4,0-1.4C125.2,122.1,125.2,123.5,124.3,123.5L124.3,123.5z"/>
			</g>
			<g>
				<path class="st3" d="M129.2,122.3c-0.4,0-0.4-0.6,0-0.6C129.6,121.7,129.6,122.3,129.2,122.3L129.2,122.3z"/>
			</g>
			<g>
				<path class="st3" d="M121.8,117.1c0,0,0.1,0,0.1,0c-0.1,0.1-0.2,0.1-0.3,0.2c0.1-0.2,0.2-0.2,0.3-0.3c0.4-0.2,0.9,0,0.9,0.5
					c0,0.5-0.5,0.7-0.9,0.5c-0.2-0.1-0.3-0.2-0.3-0.3c0.1,0.1,0.2,0.1,0.3,0.2c0,0-0.1,0-0.1,0C121.5,117.8,121.5,117.2,121.8,117.1
					L121.8,117.1z"/>
			</g>
			<g>
				<path class="st3" d="M127.1,116.9c-0.4,0-0.4-0.7,0-0.7C127.5,116.3,127.5,116.9,127.1,116.9L127.1,116.9z"/>
			</g>
		</g>
		<path class="st4" d="M176.5,74.6c-0.8,1.2-4.2,1.3-5.6,1.9c-1.9,0.8-3.7,2-5.1,3.3c-2,1.9-3.3,4.2-3.7,6.6
			c-1.7-0.4-3.5-0.4-5.1,0.2c-0.3,0-0.6,0.1-0.8,0.2c-0.6-1.9-1.5-3.7-2.6-5.4c-1.8-2.8-5.7-5.3-6.9-8.2c-1.3-3.4-6,1.3-2.3,1.9
			c5.5,0.8,9.1,7.3,10.9,12.1c-0.7,0.3-1.4,0.8-2,1.5c-3.6,3.5-1.1,11.4,4,13.2c0,0,0,0,0,0.1c-2.3,14.9-2.6,30-1.1,45
			c0.5,5.1,1.4,10.4,4.2,15c0.3,0.5,0.8,1.1,1.5,1.2c1.2,0.2,1.9-1.1,2.2-2.1c4.4-19.6,3.9-40-1.5-59.5c0,0,0,0,0,0
			c6.5-2.9,7.6-12,0.4-14.6c0.5-2.4,1.9-4.6,3.9-6.5c1-0.9,7.9-5.8,9.5-4.1c1.1,1.2,3.5,0.9,3.5-0.8C180,73.9,177.4,73.2,176.5,74.6
			z"/>
		<g class="st1">
			<g>
				<path class="st3" d="M164.3,103.3c0.2,0,0.2-0.3,0-0.3C164.1,103.1,164.1,103.3,164.3,103.3L164.3,103.3z"/>
			</g>
		</g>
		<g class="st1">
			<g>
				<path class="st5" d="M160.1,108.2c1.3,0,1.3-2,0-2C158.8,106.2,158.8,108.2,160.1,108.2L160.1,108.2z"/>
			</g>
		</g>
		<g class="st1">
			<g>
				<path class="st5" d="M160.6,118c1.2,0,1.2-1.9,0-1.9C159.3,116.1,159.3,118,160.6,118L160.6,118z"/>
			</g>
		</g>
		<g class="st1">
			<g>
				<path class="st5" d="M161.4,128c0.9,0,0.9-1.3,0-1.3C160.5,126.6,160.5,128,161.4,128L161.4,128z"/>
			</g>
		</g>
		<g class="st1">
			<g>
				<path class="st5" d="M162.3,138.7c0.9,0,0.9-1.4,0-1.4C161.4,137.3,161.4,138.7,162.3,138.7L162.3,138.7z"/>
			</g>
		</g>
	</g>
	<g class="st0">
		<g class="st1">
			<g>
				<path class="st6" d="M141.2,226.8c-2.4-4.4-5.7-9-9.7-12.2c-1.7-1.4-3.5-2.5-5.5-3.3c-1.5-0.6-6.7-0.7-7.8-1.7
					c-1.3-1.2-3.5-0.2-3.2,1.6c0.2,1.7,2.7,2.3,3.5,0.7c2.1-3.9,12.7,4.4,14.2,6c2.9,3,4.9,6.5,7.5,9.7
					C140.7,228.3,141.6,227.5,141.2,226.8L141.2,226.8z"/>
			</g>
			<g>
				<path class="st6" d="M133.3,246.2c-5.4-4.5-12.2-7.2-19.1-8.1c-3.3-0.4-6.9-0.2-9.8-0.8c-1.2-0.2-2.3-1.2-3.2,0.4
					c-0.7,1.1,0,2.6,1.2,3c0.9,0.2,1.3-0.2,2-0.5c0.3-0.3,0.4-0.6,0.5-0.9c0.9-0.3,1.8-0.4,2.8-0.4c9.1-0.6,17.6,3.2,25,8.1
					C133.2,247.4,133.8,246.6,133.3,246.2L133.3,246.2z"/>
			</g>
			<g>
				<path class="st6" d="M127.5,272.1c-3.8,0.7-7.5,1.8-10.9,3.7c-1.5,0.8-3,1.8-4.3,2.8c-1.1,0.8-3.9,4.2-5.1,4.2c-2,0-1.9,3.2,0,3
					c0.4,0,0.8-0.1,1.1-0.1c1.3-0.2,1.9-2.2,0.3-2.5c-0.4-0.1-0.7-0.2-1.1-0.3c0.4,0.5,0.7,1,1.1,1.4c-0.3-2.7,6.8-6.3,8.6-7.4
					c3.3-1.8,6.8-3.1,10.5-3.9C128.4,272.9,128.1,272,127.5,272.1L127.5,272.1z"/>
			</g>
			<g>
				<path class="st6" d="M176.3,229c3.3-2.9,6.7-5.6,10.7-7.6c3.6-1.8,11-5.2,14.9-3c2.7,1.5,2.5-3.9,0-2.4c-2.4,1.5-6,1.4-8.7,2.1
					c-2.1,0.5-4.1,1.2-6,2.1c-4.4,1.9-8.3,4.7-11.4,8.3C175.5,228.9,176,229.3,176.3,229L176.3,229z"/>
			</g>
			<g>
				<path class="st6" d="M183,247.1c4.2-2.2,8.5-3.9,13.2-4.8c4.1-0.8,11.1-1.9,15,0.4c2.1,1.2,2.9-3,0.3-2.4c-2.8,0.6-6-0.1-8.8,0
					c-2.3,0.1-4.6,0.4-6.8,0.8c-4.8,0.9-9.2,2.6-13.4,5.1C181.9,246.5,182.4,247.4,183,247.1L183,247.1z"/>
			</g>
			<g>
				<path class="st6" d="M181.1,273.7c4.6-0.1,9.2-0.1,13.1,2.9c1.6,1.2,7.5,6.2,7.1,8.3c-0.9,4.6,5.8-0.5,1.9-1.1
					c-1.6-0.2-3.7-3.8-4.7-4.9c-1.4-1.5-2.8-3.2-4.6-4.3c-3.8-2.4-8.4-2.3-12.8-2.1C180.3,272.6,180.3,273.8,181.1,273.7
					L181.1,273.7z"/>
			</g>
		</g>
		<path class="st7" d="M195.5,259c-0.3-12.6-6.5-27.4-16.5-35.3c-0.5-0.4-1.2-0.1-1.4,0.4c-0.2-0.1-0.4-0.2-0.6-0.3
			c-0.1-0.1-0.1-0.1-0.2-0.2c-0.2-0.2-0.4-0.2-0.6-0.2c-0.2-0.1-0.3-0.1-0.5-0.2c-0.2-0.1-0.4-0.1-0.6,0c-2.6-2.5-5.5-4.7-8.4-6.7
			c-1.4-1-3-1.9-4.6-2.6c0.4-1.9-1.3-4.2-3.3-2.9c-0.9,0.6-1.9,1.2-2.8,1.8c-0.9,0.1-1.7,0.3-2.6,0.7c-4.2,1.7-8,5.6-11.2,9.3
			c-0.4-0.3-0.9-0.3-1.3,0c-7.7,5.9-14.4,14.8-16.8,24.3c-0.1,0.5-0.2,1-0.4,1.5c-1.7,4.7-2.6,9.8-2.6,15.3
			c0.1,9.6,3.2,19.3,10.4,25.9c1.2,1.5,2.6,2.8,4.2,3.9c1.8,1.2,3.6,1.9,5.4,2.1c4.4,2.8,9.5,4.3,14.9,4.2c2.6,0,5.4-0.4,8.2-1.3
			c8.9-0.7,17.3-4.8,23-11.8c2.2-2.7,3.9-5.8,5.2-9.2c0.1-0.1,0.1-0.2,0.2-0.3C195,272.5,196.9,265,195.5,259z M161.9,220.3
			c-0.1-0.1-0.1-0.3-0.2-0.4c0.2,0.1,0.4,0.2,0.6,0.3C162.2,220.3,162,220.3,161.9,220.3z"/>
		<g class="st1">
			<g>
				<path class="st8" d="M176.6,223.7c-2.3,0.7-4.7,1.2-7,1.9c-2,0.7-2.4,4,0,4.4c1.7,0.3,3.1,0.9,4.6,1.7c1.4,0.8,2.6,1.8,4.2,2
					c0.8,0.1,1.6-0.8,1.5-1.5c-0.3-3.9-5.8-6.1-9.1-6.6c0.2,1.4,0.4,2.8,0.5,4.2c2.2-1,4.2-2.3,6.4-3.4
					C179.2,225.6,178.2,223.3,176.6,223.7L176.6,223.7z"/>
			</g>
		</g>
		<path class="st9" d="M141.2,295.9c0,0,11.9-10.3,17.4-33.8c0,0,9.3,24.2,19.6,32.5C178.3,294.6,160.2,307.3,141.2,295.9z"/>
		<g class="st1">
			<path class="st6" d="M178.8,221.7c-0.2,0-0.4,0-0.5-0.1c-1.1-7.1-7.4-12.2-14.4-13.6c1.9-7.7,5.3-14.8,12.2-19.6
				c2.2-1.5-0.2-4.7-2.2-2.9c-6.6,5.8-9.9,13.8-11.2,22.3c-0.4-0.1-0.8-0.1-1.3-0.1c-1.7-0.1-3.3,0-4.8,0.3
				c-0.1-4.5-1.4-8.8-3.6-12.9c-2.1-3.7-5.5-9.1-9.6-10.5c-1.3-0.4-1.9,1.2-1.2,2.1c1.3,1.6,3,2.2,4.5,3.5c1.9,1.6,3.4,3.9,4.6,6
				c2.2,3.7,3.4,7.9,4,12.1c-5.9,1.5-10.9,5.8-13.1,11.7c-0.3,0.2-0.6,0.5-0.7,0.8c-0.6,0.2-1.1,0.5-1.7,0.9c-0.6,0.4-0.9,1.4-0.3,2
				c4,3.5,11.7,2.2,16.8,2.4c7.2,0.3,14.7,1.1,21.9,0.3C180.6,226.1,181.7,222.1,178.8,221.7z"/>
			<path class="st6" d="M125.8,255.1c-3.4,2.7-3.5,12.6,1.8,12.5c0.9,0.4,2.1,0.3,2.8-0.5c2.1-2.4,3.6-5.9,2.6-9.1
				C132.2,254.9,128.6,252.9,125.8,255.1z"/>
			<path class="st6" d="M147.5,268.4c-0.3-0.6-0.7-1.2-1.4-1.6c-1.2-0.6-2.3-0.2-3.2,0.6c-0.7,0.4-1.1,1.1-1.4,1.7
				c-0.2,0.3-0.3,0.5-0.4,0.7c-0.8,1.7-1.8,4.4-0.3,6.1c3.3,3.8,8.5-2.8,7.4-6.3C148.1,269.2,147.8,268.7,147.5,268.4z"/>
			<path class="st6" d="M144.8,246.4c2.6-0.5,3.5-4.5,1-5.8c-1-0.5-1.9-0.3-2.6,0.4c0,0,0,0,0,0c-1.4,0.9-2.1,2.9-1.1,4.4
				C142.8,246.2,143.8,246.6,144.8,246.4z"/>
			<path class="st6" d="M174,232.3c-0.7-0.7-1.9-1-2.8-1c-3.7,0-6.5,4.1-4.4,7.3c2,3.2,7.1,3.2,8.5-0.5c0.5-1.4,0.3-3-0.5-4.2
				C174.7,233.4,174.5,232.8,174,232.3z"/>
			<path class="st6" d="M172.6,257.8c-0.8,0-1.6,0.3-2.3,0.9c-0.5,0.4-0.9,1.1-1,1.7c-0.2,1.1,0,2.5,1.1,3c0.7,0.3,1.8,0.4,2.4-0.1
				c1.3-0.3,2.3-1.8,2.2-3.1C175,258.9,174,257.8,172.6,257.8z"/>
			<path class="st6" d="M186,244.4c-0.4,0.2-0.7,0.7-0.7,1.1c-0.1,0.5,0.2,1.2,0.7,1.5c0.4,0.4,1,0.7,1.6,0.6
				c0.8-0.1,1.5-0.8,1.6-1.6C189.3,244.4,187.2,243.2,186,244.4z"/>
			<path class="st6" d="M182.7,272.2c-1.8,0.8-3.4,3.3-3.5,5.3c-0.1,2.1,2.1,5.1,4.4,3.6c0.2-0.2,0.4-0.4,0.6-0.6
				c1.6-0.9,2.6-2.7,2.7-4.5C187.2,273.6,185.3,271.1,182.7,272.2z"/>
		</g>
		<g class="st1">
			<g>
				<path class="st2" d="M149.4,216.9c1.3,0,1.3-1.9,0-1.9C148.2,215,148.2,216.9,149.4,216.9L149.4,216.9z"/>
			</g>
		</g>
		<g class="st1">
			<g>
				<path class="st2" d="M172.7,217.7c1.3,0,1.3-2,0-2C171.4,215.6,171.4,217.7,172.7,217.7L172.7,217.7z"/>
			</g>
		</g>
	</g>
	<g class="st0">
		<g class="st1">
			<path class="st10" d="M141.4,376.6c-2.4-3.6-5.6-6.5-9.2-8.9c-1.8-1.2-3.7-2.2-5.7-3c-2.2-0.9-3.8-2.3-6.2-2.5
				c-1.4-0.1-1.4,1.9-0.3,2.3c2,0.8,4.1,0.5,6.1,1.3c1.9,0.8,3.8,1.8,5.5,2.9c3.5,2.3,6.4,5.2,9.1,8.4
				C141,377.5,141.7,377,141.4,376.6L141.4,376.6z"/>
		</g>
		<g class="st1">
			<path class="st10" d="M149.4,405.9c-4.7-0.2-9.6,0.6-13.9,2.5c-1.8,0.8-3.5,1.8-5,3c-1.6,1.2-2.9,3.5-4.7,4.3
				c-2.6,1.1,2.1,4.4,2.1,1.2c0-1.8,2.8-3.8,4.1-4.8c1.6-1.2,3.4-2.1,5.3-2.8c3.9-1.5,8-1.9,12.2-2.3
				C150.1,406.8,150.1,405.9,149.4,405.9L149.4,405.9z"/>
		</g>
		<g class="st1">
			<path class="st10" d="M158.9,406.4c4.7-0.4,9.6,0.2,14,1.9c1.8,0.7,3.5,1.6,5.1,2.7c1.6,1.2,3,3.3,4.9,4.1c2.6,1-1.9,4.5-2.1,1.3
				c-0.1-1.8-3-3.7-4.3-4.6c-1.7-1.1-3.5-2-5.4-2.6c-4-1.3-8.1-1.6-12.2-1.8C158.3,407.4,158.3,406.5,158.9,406.4L158.9,406.4z"/>
		</g>
		<g class="st1">
			<path class="st10" d="M170.5,374.1c2.7-3.2,5.6-6.1,9.1-8.4c1.5-1,3.1-1.8,4.7-2.6c2.3-1,4.6-0.7,6.8-1.6
				c1.1-0.4,1.1-2.4-0.3-2.3c-2.4,0.2-4,1.6-6.2,2.5c-2,0.8-3.9,1.8-5.7,3c-3.6,2.3-6.8,5.3-9.2,8.9
				C169.6,374,170.2,374.5,170.5,374.1L170.5,374.1z"/>
		</g>
		<path class="st11" d="M128,383.8c-3.9,7.5-1.6,18,3.3,25.3c4.6,6.7,15.5,13.3,22.4,16.2c0,0,0,0,0,0c0,0,0,0,0,0
			c20.4-8.5,28.5-19.8,29.5-30.3c0.4-4.6-2.8-28.4-6.1-32.1h-45.9C130,364.4,128.8,382.2,128,383.8z"/>
		<path class="st4" d="M154.2,350c-0.1,0-0.3,0-0.4,0c-0.1,0-0.3,0-0.4,0c-7.2-0.4-14.5,3.3-18.7,9c-1.2,1.2-2.3,2.6-3.3,4h45.9
			C173.5,355.1,163.8,349.6,154.2,350z"/>
		<g class="st1">
			<path class="st10" d="M160.2,356.4c-0.6-0.9,1.5-5.5,1.8-6.2c0.7-1.5,1.5-2.9,2.4-4.2c1.5-2.3,5.2-7.9,8.2-8.3
				c4.4-0.6-1.5-7.3-2.6-2.6c-0.5,2.1-3.8,4.4-5.2,6.1c-1.4,1.7-2.7,3.4-3.8,5.3c-1.6,2.8-3.9,7.2-3.1,10.5c0.1,0.5,0.6,0.8,1.1,0.8
				c0.1,0,0.2,0,0.3,0C160.1,358,160.7,357,160.2,356.4L160.2,356.4z"/>
		</g>
		<g class="st1">
			<path class="st10" d="M148.9,356.9c0.1,0,0.2,0,0.3,0c0.4-0.1,0.7-0.5,0.8-0.8c0.8-3.1-0.9-7.1-2.1-9.9c-0.9-2.1-2.1-4.1-3.4-6
				c-1.2-1.7-3.8-4-4.1-6c-0.7-4.3-7.2,1.4-2.6,2.6c2.9,0.7,5.7,6.3,7,8.9c0.9,1.8,4,7.9,2.8,9.8C147.2,356.3,148,357,148.9,356.9
				L148.9,356.9z"/>
		</g>
		<path class="st12" d="M169.3,415.2h-30c-0.4,0-0.8-0.3-0.8-0.8l0,0c0-0.4,0.3-0.8,0.8-0.8h30c0.4,0,0.8,0.3,0.8,0.8l0,0
			C170.1,414.8,169.8,415.2,169.3,415.2z"/>
		<path class="st12" d="M171.8,411h-34.9c-0.4,0-0.8-0.3-0.8-0.8l0,0c0-0.4,0.3-0.8,0.8-0.8h34.9c0.4,0,0.8,0.3,0.8,0.8l0,0
			C172.6,410.6,172.2,411,171.8,411z"/>
		<ellipse class="st12" cx="153.7" cy="420.1" rx="2.7" ry="2"/>
		<g class="st1">
			<path class="st2" d="M131.7,362.9c0,0-17.8,17.3-6.6,49.4c0,0,26.8-15.5,29.5-49.4H131.7z"/>
			<g>
				<path class="st3" d="M153,363.9c-8.7,8.6-17.6,20.8-20.7,32.7c0,0.2,0.2,0.3,0.3,0.1c3.1-5.3,5.4-11.1,8.7-16.3
					c3.6-5.7,7.8-10.9,12.1-16.1C153.8,364,153.3,363.5,153,363.9L153,363.9z"/>
			</g>
			<g>
				<path class="st3" d="M130.4,401.7c-0.4,0.8-0.8,1.6-1.2,2.4c-0.3,0.6-0.8,1.3-0.8,2c0,0.1,0.2,0.3,0.3,0.2
					c0.6-0.4,0.8-1.2,1.1-1.8c0.4-0.8,0.8-1.6,1.2-2.4C131.2,401.6,130.6,401.3,130.4,401.7L130.4,401.7z"/>
			</g>
		</g>
		<g class="st1">
			<path class="st2" d="M177.4,362.9c0,0,17.8,17.3,6.6,49.4c0,0-26.8-15.5-29.5-49.4H177.4z"/>
			<g>
				<path class="st3" d="M155.6,364.3c4.3,5.2,8.5,10.3,12.1,16.1c3.3,5.3,5.6,11,8.7,16.3c0.1,0.2,0.3,0.1,0.3-0.1
					c-3.1-12-12-24.2-20.7-32.7C155.8,363.5,155.3,364,155.6,364.3L155.6,364.3z"/>
			</g>
			<g>
				<path class="st3" d="M178.1,402c0.4,0.8,0.8,1.6,1.2,2.4c0.3,0.6,0.5,1.4,1.1,1.8c0.1,0.1,0.3,0,0.3-0.2c0-0.7-0.5-1.4-0.8-2
					c-0.4-0.8-0.8-1.6-1.2-2.4C178.5,401.3,177.9,401.6,178.1,402L178.1,402z"/>
			</g>
		</g>
		<g class="st1">
			<path class="st2" d="M144.5,356.9c0-0.1,0.1-0.1,0.1-0.2c0.5-0.8-0.5-1.7-1.2-1.2c-0.1,0-0.1,0.1-0.2,0.1c-0.5,0.3-0.6,1-0.2,1.5
				C143.5,357.5,144.2,357.4,144.5,356.9L144.5,356.9z"/>
		</g>
		<g class="st1">
			<path class="st2" d="M162,357.2c1.4,0,1.4-2.2,0-2.2C160.6,355,160.6,357.2,162,357.2L162,357.2z"/>
		</g>
	</g>
	<g class="st0">
		<g class="st1">
			<g>
				<path class="st13" d="M382.7,121.6c1.8-2.5,4.3-5.1,7.1-6.5c3-1.4,3.9-0.4,4.5,2.6c0.3,1.6,0.3,3.2,0.3,4.8
					c0.1,3.4,0.9,9.3,4.4,10.9c2.6,1.2,4.2-2.5,1.5-3.6c-2-0.8-3-0.9-3.7-3.4c-0.6-2.1-0.5-4.3-0.6-6.4c-0.1-2.1-0.3-5.7-2.2-7.1
					c-1.8-1.3-3.9,0.1-5.6,1c-3,1.7-5.1,4-6.8,7C381.3,121.7,382.3,122.3,382.7,121.6L382.7,121.6z"/>
			</g>
		</g>
		<g class="st1">
			<g>
				<path class="st13" d="M333.8,121c-1.6-2.8-3.5-5-6.3-6.8c-1.6-1-4.2-2.7-6.1-1.3c-1.7,1.3-2,4.4-2.2,6.5c-0.2,2.2,0,4.4-0.5,6.6
					c-0.7,3-1.4,2.9-3.8,3.9c-2.6,1.1-1.1,4.8,1.5,3.6c3.5-1.6,4.2-7.5,4.4-10.9c0-1.2,0-2.5,0.1-3.7c0.4-3.4,1.2-5.2,4.7-3.6
					c2.8,1.2,5.4,4,7.1,6.5C333.2,122.3,334.2,121.7,333.8,121L333.8,121z"/>
			</g>
		</g>
		<g class="st1">
			<g>
				<path class="st13" d="M335.7,154.3c-2.8-1.9-12.5-6.6-14.7-1.7c-1.1,2.4,0.6,5.8,1.5,8c0.8,1.9,3,6.2,1.8,8.4
					c-0.2,0.4-1.4,1-2,1.5c-2.1,1.8,1.5,4.9,3.1,2.4c0.2-0.3,0.4-0.6,0.6-0.9c0.3-0.5,0.3-1.3,0-1.8c-0.4-0.7,0.3-3.2,0.2-4.2
					c-0.2-1.5-0.8-2.9-1.3-4.3c-1.3-3.1-4.5-8.1,1-9.1c2.6-0.5,7.1,1.6,9.3,2.8C335.8,155.7,336.3,154.7,335.7,154.3L335.7,154.3z"
					/>
			</g>
		</g>
		<g class="st1">
			<g>
				<path class="st13" d="M378,149.6c3.6-0.3,7.4,0.1,10.8,1.2c7.3,2.4,3.5,6.7,0.4,10.7c-2.7,3.5-3.4,7.1-2.7,11.5
					c0.5,3.2,5.9,0.4,3.3-1.9c-6.8-6,8.2-11.9,5-18.6c-0.9-1.9-3.7-2.6-5.5-3.2c-3.9-1.3-7.5-1.5-11.4-0.8
					C377.1,148.6,377.3,149.7,378,149.6L378,149.6z"/>
			</g>
		</g>
		<path class="st14" d="M376.9,103c-1.1-0.4-1.8-1.5-1.8-2.7v-2.2c0-4.9-4-8.9-8.9-8.9h-4.8c-0.2-1.9-0.1-3.7,0.4-5.7
			c0.4-1.6,1-3.2,1.8-4.7c0.4-0.8,2.8-5.2,3.9-5c1.8,0.3,3.3-1.5,1.9-2.7c-1.4-1.2-3.6,0-3.2,1.6c0.2,0.6-3.1,4-3.4,4.6
			c-1.1,1.9-1.9,3.9-2.4,5.9c-0.5,2-0.6,4-0.5,6.1h-8.6c-0.2-2.3-0.9-4.6-1.9-6.7c-0.9-1.8-2-3.4-3.3-5c-0.8-0.9-4.9-3.7-4.9-4.5
			c0.1-1.6-2.4-2.2-3.4-1c-1,1.1,0.2,3.2,2,2.6c1.3-0.5,4.7,3.5,5.3,4.1c1.3,1.5,2.2,3.1,3,4.8c0.9,1.9,1.3,3.8,1.5,5.7h-1.9
			c-4.9,0-8.9,4-8.9,8.9v2.2c0,1.2-0.7,2.3-1.8,2.7c-5.4,2.1-9.2,7.4-9.2,13.6c0,1.6,1.3,2.9,2.9,2.9h52.7c1.6,0,2.9-1.3,2.9-2.9
			C386.1,110.4,382.3,105.1,376.9,103z"/>
		<path class="st15" d="M358.6,175.7h-3.6c-15.2,0-27.5-12.3-27.5-27.5V116c0-4.4,3.5-7.9,7.9-7.9h42.7c4.4,0,7.9,3.5,7.9,7.9v32.2
			C386.1,163.4,373.8,175.7,358.6,175.7z"/>
		<polygon class="st14" points="352.3,103.6 356.7,168 361.4,103.6 		"/>
		<g class="st1">
			<path class="st16" d="M336.6,141.2c0.1-4.8,0.2-9.6,0.3-14.4c0.1-4.6,0.5-9.5-0.2-14c-0.2-1.3-2.4-1.3-2.6,0
				c-1,5-0.7,10.4-0.8,15.6c-0.1,5.6-0.3,11.1-0.3,16.7c0,7.5-0.7,17.8,4.8,23.7c0.6,0.6,1.3-0.2,1-0.8
				C335,159.1,336.4,150.4,336.6,141.2z"/>
			<path class="st16" d="M346.4,159.6c-0.1-5.3,0.1-10.7,0.1-16c0.1-5.1,0.1-10.3,0.1-15.4c0-4.9,0.4-10-0.5-14.9
				c-0.2-1-1.8-1-1.9,0c-1.1,5.1-0.7,10.5-0.8,15.7c-0.1,5.7-0.1,11.3-0.2,17c-0.1,8.1-2.5,21.5,4.3,27.6c0.5,0.4,1.5,0.2,1.5-0.6
				c-0.2-1.9-1-3.6-1.5-5.4C346.8,165,346.5,162.3,346.4,159.6z"/>
			<path class="st16" d="M368.7,114.4c-0.2-1.1-1.9-1-2.1,0c-2,9.7-0.7,20.2-1,30c-0.2,5.3-0.6,10.5-1.4,15.7
				c-0.7,4.9-1.6,8.3-5.3,11.8c-0.6,0.5-0.1,1.4,0.6,1.4c8.5,0.7,9-17.2,9.4-22.3c0.5-6.2,0.5-12.4,0.5-18.5
				C369.5,126.5,369.7,120.3,368.7,114.4z"/>
			<path class="st16" d="M382,130c-0.2-5.1,0.2-10.5-0.8-15.6c-0.2-1-1.5-0.8-1.8,0c-1.5,4.2-1.3,8.9-1.2,13.3c0,4.8,0.3,9.5,0,14.3
				c-0.4,8.4-3,15.3-6,23.1c-0.4,1,1,1.6,1.7,1c6-5.1,7.4-14.1,8-21.6C382.3,139.7,382.2,134.8,382,130z"/>
		</g>
		<g class="st1">
			<path class="st17" d="M340.7,113.7c-0.2,7.9-0.3,15.8-0.3,23.8c0,7.2-0.9,15.2,0.3,22.3c0.1,0.4,0.7,0.4,0.8,0
				c1.3-7.1,0.6-15.1,0.6-22.3c0-7.9,0-15.8-0.1-23.8C342.1,112.8,340.8,112.8,340.7,113.7L340.7,113.7z"/>
		</g>
		<g class="st1">
			<path class="st17" d="M350.1,112.4c-0.3,8-0.6,16-0.7,24c-0.1,7.9-0.6,16.1,0.4,24c0,0.3,0.5,0.3,0.5,0c0.9-7.9,0.6-16.1,0.7-24
				c0.1-8,0.3-16,0.5-24C351.4,111.5,350.1,111.5,350.1,112.4L350.1,112.4z"/>
		</g>
		<g class="st1">
			<path class="st17" d="M363.3,113.7c-0.3,7.9-0.6,15.9-0.8,23.8c-0.2,7.8-1.3,16.1-0.3,23.8c0,0.4,0.7,0.6,0.7,0.1
				c1.3-7.5,0.7-15.6,0.8-23.1c0.2-8.2,0.3-16.4,0.4-24.6C364.2,113.2,363.4,113.2,363.3,113.7L363.3,113.7z"/>
		</g>
		<g class="st1">
			<path class="st17" d="M373.6,117c0.1,7.4,0,14.9-0.1,22.3c-0.1,7.3-1,15-0.3,22.3c0,0.4,0.6,0.5,0.7,0.1c1.4-7,1-14.5,1.1-21.6
				c0.1-7.7,0.1-15.4,0-23.1C374.9,116.2,373.6,116.2,373.6,117L373.6,117z"/>
		</g>
		<g class="st1">
			<path class="st17" d="M382.6,121.7c0.2,5.5,0.4,11.1,0.3,16.7c0,5.5-0.9,11.2-0.3,16.7c0,0.3,0.6,0.5,0.6,0.1
				c1.2-5.1,0.8-10.8,0.8-16c0-5.8-0.1-11.6-0.4-17.4C383.8,121,382.6,121,382.6,121.7L382.6,121.7z"/>
		</g>
		<g class="st1">
			<path class="st17" d="M330,120c-0.1,7.9-1,16.3,0.2,24.1c0.1,0.4,0.7,0.4,0.8,0c1.3-7.8,0.4-16.2,0.2-24.1
				C331.3,119.2,330,119.2,330,120L330,120z"/>
		</g>
		<g class="st1">
			<g>
				<path class="st2" d="M347.6,96.7c1.7,0,1.7-2.6,0-2.6C346,94.1,346,96.7,347.6,96.7L347.6,96.7z"/>
			</g>
		</g>
		<g class="st1">
			<g>
				<path class="st2" d="M365.9,95.9c1.5,0,1.5-2.4,0-2.4C364.4,93.5,364.4,95.9,365.9,95.9L365.9,95.9z"/>
			</g>
		</g>
		<g class="st1">
			<g>
				<path class="st13" d="M343.4,104.6c-8.3-2.2-13.1-8.2-15.6-16.1c-0.2-0.7-0.6-1.5-0.5-2c0.1-0.2,0.8-0.4,0.9-0.8
					c0.2-0.7,0.4-1.3,0-2c-0.8-1.4-3.1-1.1-3.5,0.5c-0.2,0.9,0.3,1.2,0.5,1.9c0.3,1,0.5,2.1,0.7,3.3c0.5,2.8,1.7,5.5,3.2,7.8
					c3.4,4.9,8.2,8,14.1,8.7C344,106.1,344.1,104.8,343.4,104.6L343.4,104.6z"/>
			</g>
		</g>
		<g class="st1">
			<g>
				<path class="st13" d="M373.6,106c5.7-0.7,10.4-3.5,13.8-8.2c1.7-2.4,3-5.2,3.6-8.1c0.2-1.1,0.2-2.3,0.5-3.3c0.3-0.8,1-1,0.7-2
					c-0.4-1.5-2.4-1.9-3.4-0.7c-0.6,0.7-0.4,1.3-0.2,2.1c0.1,0.3,0.6,0.4,0.7,0.7c0.2,0.6,0.1,0.4-0.2,1.5
					c-2,8.2-7.4,14.4-15.7,16.7C372.7,104.8,372.8,106.1,373.6,106L373.6,106z"/>
			</g>
		</g>
	</g>
	<g class="st0">
		<path class="st11" d="M361.3,371.5c0,0-18.1-26.1-37.1-38.2c-19.1-12-27.1,2-21.1,11s8.1,36.8,28.1,33S361.3,371.5,361.3,371.5z"
			/>
		<path class="st18" d="M361.3,371.5c0,0-19-0.2-37,10.9c-18.1,11.1-13.1,32.2,0,35.2c13.1,3,34.1-16.3,36.1-24.2
			C362.4,385.5,361.3,371.5,361.3,371.5z"/>
		<g class="st1">
			<path class="st19" d="M362.4,371.3c-6.1-9-12.6-18.3-21.3-25c-4.6-3.5-8.9-7-13.1-10.9c-3.6-3.3-7.5-6.5-12.2-7.9
				c-7.4-2.2-17.5,2.1-16.1,11.1c0.7,4.9,3.8,9.7,5.7,14.1c2.2,5,4.2,10,6.9,14.8c1.2,2.1,2.3,4.5,4.2,6c1.8,1.4,3.9,2.9,5.9,3.7
				c4.6,1.9,10,1.4,14.8,0.4c0.5-0.1,0.4-0.9-0.1-0.9c-4.2,0.3-8.6,1-12.7-0.3c-4.1-1.3-7.7-4.5-9.9-8.1
				c-4.5-7.7-7.2-16.2-10.8-24.3c-1.1-2.4-2.4-5.1-2-7.8c0.3-2.3,1.8-4.3,3.8-5.5c4.2-2.7,9.4-1.7,13.5,0.5c4,2.2,7.3,5.5,10.6,8.6
				c3.2,3,6.7,5.5,10.2,8.1c8.8,6.7,14.3,16.1,21.2,24.6C361.6,373.3,363,372.2,362.4,371.3L362.4,371.3z"/>
		</g>
		<g class="st1">
			<path class="st19" d="M330.3,340.6c-1.1,6.2-0.5,14.7,5.7,18c8.1,4.3,16.6,8,25,11.7c0.8,0.3,1.4-0.8,0.7-1.1
				c-7-3.4-14.1-6.6-21.1-9.9c-3.7-1.8-7-3.1-8.3-7.4c-1.2-3.6-1.3-7.4-0.9-11.2C331.4,340.2,330.4,340,330.3,340.6L330.3,340.6z"/>
		</g>
		<g class="st1">
			<path class="st19" d="M330.8,343.1c-4.5-2.9-10-4.2-15.1-5.5c-4.8-1.2-9.8-2.7-14.7-1.4c-0.8,0.2-0.5,1.5,0.3,1.3
				c5.1-1.3,10.4,0.5,15.4,1.7c4.8,1.2,9.2,2.9,13.8,4.5C330.9,343.9,331.1,343.3,330.8,343.1L330.8,343.1z"/>
		</g>
		<g class="st1">
			<path class="st19" d="M331.2,347.8c-8.2-2.4-17.4-2-25.8-0.7c-0.8,0.1-0.5,1.4,0.3,1.3c8.6-1.3,16.8-0.7,25.3,0.1
				C331.5,348.5,331.5,347.9,331.2,347.8L331.2,347.8z"/>
		</g>
		<g class="st1">
			<path class="st19" d="M331.3,353.4c-3.8,1.8-7.6,2.6-11.7,3.5c-3.1,0.7-7,1.6-9.1,4.1c-0.3,0.4,0.1,0.9,0.5,0.7
				c1.8-0.9,3.3-2,5.2-2.6c1.8-0.6,3.7-1,5.6-1.4c3.4-0.7,7-1.4,9.9-3.5C332.2,353.8,331.8,353.2,331.3,353.4L331.3,353.4z"/>
		</g>
		<g class="st1">
			<path class="st19" d="M337,357.8c-3.7,1.4-7.1,3.7-10.5,5.8c-3.9,2.4-7.7,4.8-11.6,7.2c-0.7,0.4-0.1,1.5,0.6,1
				c7.2-4.5,14.3-9.3,21.8-13.1C337.9,358.5,337.6,357.6,337,357.8L337,357.8z"/>
		</g>
		<g class="st1">
			<path class="st19" d="M342.5,361.1c-5,5.1-9.7,10.5-14.5,15.9c-0.5,0.6,0.3,1.5,0.9,0.9c4.8-5.3,9.7-10.6,14.2-16.2
				C343.4,361.3,342.9,360.7,342.5,361.1L342.5,361.1z"/>
		</g>
		<g class="st1">
			<path class="st19" d="M349.6,364.3c-2.9,2.9-5.4,6.4-7.1,10.1c-0.3,0.6,0.6,1.2,1,0.6c2.1-3.6,4.2-6.9,6.7-10.2
				C350.5,364.4,349.9,364,349.6,364.3L349.6,364.3z"/>
		</g>
		<g class="st1">
			<path class="st19" d="M355.9,368c-1.6,0.3-3,1.8-3.1,3.4c0,0.2,0.2,0.5,0.4,0.5c0,0,0.1,0,0.1,0c0.2,0,0.4-0.2,0.5-0.4
				c0.4-1.3,1.1-2.2,2.4-2.8C356.6,368.5,356.3,367.9,355.9,368L355.9,368z"/>
		</g>
		<g class="st1">
			<path class="st19" d="M328.6,335c-0.1-0.1-0.3-0.2-0.4-0.3c-0.6-0.4-1.2,0.5-0.7,0.9c2,2.1,4.2,4.1,6.3,6.1
				c1.9,1.8,3.6,4.1,5.9,5.5c0.4,0.2,0.8-0.2,0.6-0.6c-1.3-2.5-3.7-4.4-5.6-6.3c-2-2-4.1-3.9-6.4-5.6c0,0.4-0.1,0.7-0.1,1.1
				c0.2-0.1,0.3-0.1,0.5-0.2C328.8,335.6,328.9,335.2,328.6,335L328.6,335z"/>
		</g>
		<g class="st1">
			<path class="st19" d="M329.6,342.2c-4.9-1.3-8.6-4.9-13.1-6.9c-4-1.8-8.6-3-13-2.7c-0.3,0-0.3,0.5,0,0.5c5.3,0.6,10.2,1.5,15,4.1
				c3.6,2,6.8,5,11,5.6C329.8,342.8,330,342.3,329.6,342.2L329.6,342.2z"/>
		</g>
		<g class="st1">
			<path class="st19" d="M329.8,342.8c-3.5,0.8-6.9,1.7-10.4,2.5c-3.4,0.8-7,1.2-10.4,2.2c-0.3,0.1-0.2,0.5,0.1,0.5
				c3.4-0.2,6.8-1.1,10.1-1.8c3.6-0.8,7.3-1.7,10.8-2.8C330.3,343.3,330.2,342.7,329.8,342.8L329.8,342.8z"/>
		</g>
		<g class="st1">
			<path class="st19" d="M329.6,348c-2.6,4.3-6,6.6-10.6,8.3c-3,1.1-6,2.2-8.1,4.6c-0.3,0.3,0.2,0.7,0.4,0.4c3-3.1,7-3.9,10.8-5.6
				c3.4-1.6,6.3-4.1,7.9-7.5C330.2,347.9,329.8,347.7,329.6,348L329.6,348z"/>
		</g>
		<g class="st1">
			<path class="st19" d="M313.6,367.5c7.7-2,15.8-5,22.8-8.8c0.2-0.1,0.1-0.4-0.1-0.3c-3.8,1.4-7.5,3.1-11.3,4.5
				c-3.8,1.4-7.7,2.6-11.5,4C313.1,367.1,313.3,367.6,313.6,367.5L313.6,367.5z"/>
		</g>
		<g class="st1">
			<path class="st19" d="M336,358.5c-1.2,6.5-5.8,11.1-7.7,17.2c0,0.1,0.1,0.1,0.1,0c2.8-5.5,7.8-10.8,8-17.2
				C336.5,358.3,336.1,358.3,336,358.5L336,358.5z"/>
		</g>
		<g class="st1">
			<path class="st19" d="M328.5,376.1c0,0.2-0.1,0.4-0.1,0.6c0,0,0,0.1,0.1,0c0.1-0.2,0.1-0.4,0.2-0.6
				C328.7,376,328.6,376,328.5,376.1L328.5,376.1z"/>
		</g>
		<g class="st1">
			<path class="st19" d="M328.4,377.1c0.1,0,0.1-0.2,0-0.2C328.3,376.9,328.3,377.1,328.4,377.1L328.4,377.1z"/>
		</g>
		<g class="st1">
			<path class="st19" d="M328.4,377.2c0,0.1,0,0.1,0,0.2c0,0,0.1,0,0.1,0c0-0.1,0-0.1,0-0.2C328.5,377.1,328.4,377.1,328.4,377.2
				L328.4,377.2z"/>
		</g>
		<g class="st1">
			<path class="st19" d="M328.6,377.3c2.9-3.1,7.7-4.6,11.4-6.6c3.2-1.7,6.5-3.7,8.8-6.5c0.2-0.3-0.1-0.7-0.4-0.4
				c-3.2,3-6.7,5.3-10.6,7.3c-3.2,1.7-7.3,3.1-9.5,6C328.1,377.3,328.4,377.5,328.6,377.3L328.6,377.3z"/>
		</g>
		<g class="st1">
			<path class="st20" d="M361.3,371.3c-6.1-0.8-14,0.8-19,4.5c-3.4,2.5-5.9,7.9-2.2,11.3c4,3.6,11,2.1,14.9-0.7
				c4.7-3.3,7.3-9.4,7.2-15c0-0.4-0.6-0.4-0.6,0c-0.6,4.9-1.9,9.6-5.6,13.1c-3.6,3.4-10.2,5.5-14.6,2.3c-5.5-4.1,0.6-9.9,4.7-11.8
				c4.9-2.2,9.9-2.7,15.1-3.1C361.7,371.8,361.6,371.3,361.3,371.3L361.3,371.3z"/>
		</g>
		<g class="st1">
			<path class="st20" d="M313.8,394.2c-0.2,6.4,1.2,14,7.1,17.6c2.6,1.6,5.8,1.8,8.8,1.6c3.5-0.1,6.2-1.8,9.2-3.7
				c6.1-3.8,11.8-8.3,16.3-14c1.8-2.3,3.8-4.9,4.6-7.8c1.1-3.8,0.8-8.1,1.1-12c0-0.2-0.3-0.2-0.3,0c-0.3,3.5-0.4,7.2-1.2,10.6
				c-0.7,3-2.5,5.6-4.3,8c-3.8,5-8.6,9-13.8,12.5c-2.4,1.6-4.9,3.4-7.6,4.5c-3,1.3-7.3,1.2-10.3,0.1c-7.4-2.5-8.5-11-8.9-17.6
				C314.4,393.8,313.8,393.8,313.8,394.2L313.8,394.2z"/>
		</g>
		<g class="st1">
			<path class="st20" d="M339.1,380.2c-9,4.2-17.5,9.8-25.6,15.6c-0.4,0.3,0,0.9,0.4,0.6c8.2-5.9,16.8-10.8,25.5-15.8
				C339.6,380.5,339.4,380.1,339.1,380.2L339.1,380.2z"/>
		</g>
		<g class="st1">
			<path class="st20" d="M339.8,386.8c-4.5,2.4-8.7,6.1-12.6,9.3c-2.1,1.7-4.1,3.4-6.1,5.2c-1.8,1.7-4,3.3-5.4,5.4
				c-0.1,0.2,0.1,0.4,0.3,0.3c2-1.2,3.6-3.2,5.4-4.7c2-1.8,4-3.5,6.1-5.2c4.1-3.4,8.7-6.2,12.7-9.7
				C340.4,387,340.1,386.7,339.8,386.8L339.8,386.8z"/>
		</g>
		<g class="st1">
			<path class="st20" d="M345,388.6c-5.8,7.7-10.9,16-15.9,24.2c-0.2,0.3,0.3,0.5,0.4,0.3c5.3-8,10.9-16,16-24.1
				C345.7,388.6,345.2,388.3,345,388.6L345,388.6z"/>
		</g>
		<g class="st1">
			<path class="st20" d="M351,388.5c-0.3,3.4-0.1,7.1,0,10.5c0,0.5,0.7,0.5,0.7,0c0.3-3.4,0.5-7.3-0.1-10.6
				C351.5,388.1,351,388.2,351,388.5L351,388.5z"/>
		</g>
		<g class="st1">
			<path class="st20" d="M356.6,384c0.1,2,0.5,4.1,1.1,6.1c0.1,0.4,0.7,0.2,0.7-0.2c-0.4-2-0.9-4-1.3-6
				C357,383.7,356.6,383.8,356.6,384L356.6,384z"/>
		</g>
		<g class="st1">
			<path class="st20" d="M315.4,406.3c0.7,4.7,4,10.1,9.1,10.9c5.9,1,12.4-3.6,16.7-7c5.6-4.3,11.1-9.2,15.7-14.6
				c4-4.6,4.3-10.7,4.4-16.5c0-0.2-0.4-0.2-0.4,0c-0.3,5.7-0.6,11.5-4.5,16c-3.7,4.3-8,8.1-12.2,11.8c-4.2,3.7-8.9,7.2-14.3,9
				c-3.7,1.2-7,0.8-9.8-1.9c-2.2-2.1-3.5-4.9-4-7.9C316,405.8,315.4,405.9,315.4,406.3L315.4,406.3z"/>
		</g>
		<g class="st1">
			<path class="st21" d="M318.8,390.6c-1.7,1.6-3.9,5.1-1,6.8c2.5,1.4,5.7-2.4,6.5-4.4c0.9-2.2-0.7-5.8-3.5-4.8
				c-1.4,0.5-2.6,2.2-3.4,3.5c-1,1.5-1.4,3.2-0.8,4.9c0.1,0.3,0.4,0.6,0.7,0.6c4.1-0.1,7.4-3.5,7.4-7.5c0-0.3-0.2-0.7-0.6-0.7
				c-3.3-0.5-6.3,2.1-6.3,5.4c0,0.7,0.7,0.9,1.2,0.7c2-0.9,3.3-2.4,4-4.4c0.3-0.9-0.8-1.3-1.4-0.8c-1.3,1-2.1,2.3-2.6,3.9
				c-0.2,0.9,0.8,1.4,1.4,0.8c1.5-1.3,2.3-3.1,2.2-5c0-0.5-0.6-1.1-1.1-0.8c-2.4,1-4.2,2.9-4.7,5.5c-0.1,0.6,0.3,1.1,0.9,1.1
				c3.1,0.1,5.7-2.5,5.7-5.6c0-0.6-0.6-1-1.1-0.9c-1.7,0.4-3.2,1.3-4.2,2.8c-0.8,1.1-1.8,3.2-0.9,4.6c1,1.6,3.1,0.4,4.2-0.4
				c1.4-1.1,2.4-2.7,2.6-4.5c0.1-0.6-0.2-1.1-0.9-1.1c-0.7,0-1.3,0-1.9,0c-1.1,0-1.1,1.6,0,1.7c0.7,0.1,1.3,0.1,1.9,0.1
				c-0.3-0.4-0.6-0.8-0.9-1.1c-0.2,1.1-0.6,2.1-1.3,3c-0.3,0.4-0.7,0.7-1.1,0.9c-0.2,0.1-0.4,0.2-0.6,0.3c-0.6,0.2-0.8,0-0.6-0.4
				c-0.1-0.8,0.9-2.1,1.4-2.6c0.8-0.8,1.7-1.2,2.7-1.5c-0.4-0.3-0.8-0.6-1.1-0.9c0,2.2-1.8,3.8-3.9,3.8c0.3,0.4,0.6,0.7,0.9,1.1
				c0.4-2,1.6-3.5,3.5-4.3c-0.4-0.3-0.7-0.6-1.1-0.8c0,1.6-0.5,2.8-1.7,3.8c0.5,0.3,0.9,0.6,1.4,0.8c0.3-1.4,1-2.3,2.1-3.2
				c-0.5-0.3-0.9-0.5-1.4-0.8c-0.5,1.6-1.7,2.8-3.2,3.5c0.4,0.2,0.8,0.5,1.2,0.7c0-2.3,2-4.3,4.3-3.9c-0.2-0.2-0.4-0.5-0.6-0.7
				c0,3.2-2.6,5.9-5.8,6c0.2,0.2,0.5,0.4,0.7,0.6c-0.7-2,0.6-3.8,1.8-5.3c0.7-0.8,1.6-1.9,2.7-0.9c0.9,0.8,0.8,2,0.3,3
				c-0.6,1.2-2.4,3.2-3.8,3.3c-1.3,0.1-1.7-1.2-1.3-2.3c0.3-1,1.1-1.7,1.7-2.5C320,390.9,319.3,390.2,318.8,390.6L318.8,390.6z"/>
		</g>
		<g class="st1">
			<path class="st22" d="M321.3,391.5c-1.2,0.4-2.1,1.2-2.7,2.4c-0.5,0.9-1,2.3,0.3,2.7c2.4,0.6,3.2-2.8,3.2-4.5
				c0-0.2-0.2-0.4-0.4-0.4c-0.5,0-1-0.1-1.5,0c-0.3,0.1-0.3,0.5,0,0.6c0.5,0.1,1,0.2,1.5,0.2c-0.1-0.1-0.3-0.3-0.4-0.4
				c0,1.2-0.2,3.1-1.5,3.6c-0.6,0.2-0.9-0.3-0.7-0.8c0.1-0.4,0.3-0.8,0.6-1.1c0.5-0.7,1.2-1.3,1.9-1.7
				C321.7,391.9,321.5,391.4,321.3,391.5L321.3,391.5z"/>
		</g>
		<path class="st11" d="M363.9,371.5c0,0,17.8-26.1,36.6-38.2c18.8-12,26.7,2,20.8,11c-5.9,9-8,36.8-27.7,33
			C373.8,373.5,363.9,371.5,363.9,371.5z"/>
		<path class="st18" d="M363.9,371.5c0,0,18.7-0.2,36.5,10.9c17.8,11.1,12.9,32.2,0,35.2c-12.9,3-33.6-16.3-35.6-24.2
			C362.8,385.5,363.9,371.5,363.9,371.5z"/>
		<g class="st1">
			<path class="st19" d="M362.8,371.3c6-9,12.4-18.3,21-25c4.5-3.5,8.8-7,13-10.9c3.5-3.3,7.4-6.5,12.1-7.9
				c7.3-2.2,17.2,2.1,15.9,11.1c-0.7,4.9-3.7,9.7-5.6,14.1c-2.1,5-4.2,10-6.8,14.8c-1.1,2.1-2.3,4.5-4.2,6c-1.8,1.4-3.8,2.9-5.9,3.7
				c-4.6,1.9-9.9,1.4-14.6,0.4c-0.5-0.1-0.4-0.9,0.1-0.9c4.2,0.3,8.5,1,12.6-0.3c4-1.3,7.6-4.5,9.7-8.1c4.5-7.7,7.1-16.2,10.6-24.3
				c1-2.4,2.4-5.1,2-7.8c-0.3-2.3-1.8-4.3-3.7-5.5c-4.1-2.7-9.3-1.7-13.3,0.5c-4,2.2-7.2,5.5-10.5,8.6c-3.2,3-6.6,5.5-10,8.1
				c-8.7,6.7-14.1,16.1-20.9,24.6C363.6,373.3,362.2,372.2,362.8,371.3L362.8,371.3z"/>
		</g>
		<g class="st1">
			<path class="st19" d="M394.4,340.6c1.1,6.2,0.4,14.7-5.6,18c-7.9,4.3-16.4,8-24.6,11.7c-0.8,0.3-1.4-0.8-0.7-1.1
				c6.9-3.4,13.9-6.6,20.8-9.9c3.7-1.8,6.9-3.1,8.2-7.4c1.1-3.6,1.3-7.4,0.9-11.2C393.4,340.2,394.3,340,394.4,340.6L394.4,340.6z"
				/>
		</g>
		<g class="st1">
			<path class="st19" d="M394,343.1c4.4-2.9,9.9-4.2,14.9-5.5c4.7-1.2,9.6-2.7,14.5-1.4c0.8,0.2,0.5,1.5-0.3,1.3
				c-5.1-1.3-10.2,0.5-15.1,1.7c-4.7,1.2-9.1,2.9-13.6,4.5C393.9,343.9,393.7,343.3,394,343.1L394,343.1z"/>
		</g>
		<g class="st1">
			<path class="st19" d="M393.6,347.8c8.1-2.4,17.1-2,25.4-0.7c0.8,0.1,0.5,1.4-0.3,1.3c-8.4-1.3-16.5-0.7-25,0.1
				C393.3,348.5,393.3,347.9,393.6,347.8L393.6,347.8z"/>
		</g>
		<g class="st1">
			<path class="st19" d="M393.4,353.4c3.7,1.8,7.5,2.6,11.5,3.5c3,0.7,6.9,1.6,9,4.1c0.3,0.4-0.1,0.9-0.5,0.7
				c-1.7-0.9-3.2-2-5.1-2.6c-1.8-0.6-3.7-1-5.5-1.4c-3.3-0.7-6.9-1.4-9.7-3.5C392.6,353.8,392.9,353.2,393.4,353.4L393.4,353.4z"/>
		</g>
		<g class="st1">
			<path class="st19" d="M387.8,357.8c3.7,1.4,7,3.7,10.3,5.8c3.8,2.4,7.6,4.8,11.4,7.2c0.6,0.4,0.1,1.5-0.6,1
				c-7.1-4.5-14.1-9.3-21.5-13.1C387,358.5,387.3,357.6,387.8,357.8L387.8,357.8z"/>
		</g>
		<g class="st1">
			<path class="st19" d="M382.5,361.1c4.9,5.1,9.6,10.5,14.3,15.9c0.5,0.6-0.3,1.5-0.9,0.9c-4.7-5.3-9.5-10.6-14-16.2
				C381.5,361.3,382.1,360.7,382.5,361.1L382.5,361.1z"/>
		</g>
		<g class="st1">
			<path class="st19" d="M375.4,364.3c2.9,2.9,5.4,6.4,7,10.1c0.3,0.6-0.6,1.2-1,0.6c-2-3.6-4.2-6.9-6.6-10.2
				C374.6,364.4,375.1,364,375.4,364.3L375.4,364.3z"/>
		</g>
		<g class="st1">
			<path class="st19" d="M369.3,368c1.6,0.3,3,1.8,3,3.4c0,0.2-0.2,0.5-0.4,0.5c0,0-0.1,0-0.1,0c-0.2,0-0.4-0.2-0.5-0.4
				c-0.4-1.3-1.1-2.2-2.3-2.8C368.5,368.5,368.8,367.9,369.3,368L369.3,368z"/>
		</g>
		<g class="st1">
			<path class="st19" d="M396.1,335c0.1-0.1,0.3-0.2,0.4-0.3c0.6-0.4,1.2,0.5,0.7,0.9c-2,2.1-4.2,4.1-6.2,6.1
				c-1.8,1.8-3.6,4.1-5.8,5.5c-0.4,0.2-0.8-0.2-0.6-0.6c1.2-2.5,3.6-4.4,5.6-6.3c2-2,4.1-3.9,6.3-5.6c0,0.4,0.1,0.7,0.1,1.1
				c-0.2-0.1-0.3-0.1-0.5-0.2C395.9,335.6,395.8,335.2,396.1,335L396.1,335z"/>
		</g>
		<g class="st1">
			<path class="st19" d="M395.1,342.2c4.8-1.3,8.5-4.9,12.9-6.9c4-1.8,8.5-3,12.8-2.7c0.3,0,0.3,0.5,0,0.5
				c-5.2,0.6-10.1,1.5-14.8,4.1c-3.6,2-6.7,5-10.9,5.6C394.9,342.8,394.8,342.3,395.1,342.2L395.1,342.2z"/>
		</g>
		<g class="st1">
			<path class="st19" d="M395,342.8c3.4,0.8,6.8,1.7,10.2,2.5c3.4,0.8,6.9,1.2,10.3,2.2c0.3,0.1,0.2,0.5-0.1,0.5
				c-3.3-0.2-6.7-1.1-9.9-1.8c-3.6-0.8-7.2-1.7-10.6-2.8C394.4,343.3,394.6,342.7,395,342.8L395,342.8z"/>
		</g>
		<g class="st1">
			<path class="st19" d="M395.1,348c2.6,4.3,5.9,6.6,10.4,8.3c2.9,1.1,5.9,2.2,8,4.6c0.3,0.3-0.2,0.7-0.4,0.4
				c-3-3.1-6.9-3.9-10.6-5.6c-3.4-1.6-6.2-4.1-7.8-7.5C394.6,347.9,395,347.7,395.1,348L395.1,348z"/>
		</g>
		<g class="st1">
			<path class="st19" d="M410.9,367.5c-7.6-2-15.5-5-22.5-8.8c-0.2-0.1-0.1-0.4,0.1-0.3c3.7,1.4,7.4,3.1,11.1,4.5
				c3.7,1.4,7.6,2.6,11.3,4C411.4,367.1,411.3,367.6,410.9,367.5L410.9,367.5z"/>
		</g>
		<g class="st1">
			<path class="st19" d="M388.8,358.5c1.2,6.5,5.7,11.1,7.6,17.2c0,0.1-0.1,0.1-0.1,0c-2.7-5.5-7.7-10.8-7.9-17.2
				C388.3,358.3,388.8,358.3,388.8,358.5L388.8,358.5z"/>
		</g>
		<g class="st1">
			<path class="st19" d="M396.2,376.1c0,0.2,0.1,0.4,0.1,0.6c0,0,0,0.1-0.1,0c-0.1-0.2-0.1-0.4-0.2-0.6
				C396,376,396.2,376,396.2,376.1L396.2,376.1z"/>
		</g>
		<g class="st1">
			<path class="st19" d="M396.3,377.1c-0.1,0-0.1-0.2,0-0.2C396.4,376.9,396.4,377.1,396.3,377.1L396.3,377.1z"/>
		</g>
		<g class="st1">
			<path class="st19" d="M396.3,377.2c0,0.1,0,0.1,0,0.2c0,0-0.1,0-0.1,0c0-0.1,0-0.1,0-0.2C396.2,377.1,396.4,377.1,396.3,377.2
				L396.3,377.2z"/>
		</g>
		<g class="st1">
			<path class="st19" d="M396.2,377.3c-2.9-3.1-7.6-4.6-11.2-6.6c-3.1-1.7-6.4-3.7-8.7-6.5c-0.2-0.3,0.1-0.7,0.4-0.4
				c3.2,3,6.6,5.3,10.4,7.3c3.1,1.7,7.2,3.1,9.4,6C396.7,377.3,396.3,377.5,396.2,377.3L396.2,377.3z"/>
		</g>
		<g class="st1">
			<path class="st20" d="M363.9,371.3c6-0.8,13.8,0.8,18.7,4.5c3.3,2.5,5.8,7.9,2.1,11.3c-3.9,3.6-10.8,2.1-14.7-0.7
				c-4.6-3.3-7.2-9.4-7.1-15c0-0.4,0.5-0.4,0.6,0c0.6,4.9,1.9,9.6,5.5,13.1c3.5,3.4,10.1,5.5,14.4,2.3c5.4-4.1-0.6-9.9-4.6-11.8
				c-4.8-2.2-9.7-2.7-14.9-3.1C363.6,371.8,363.6,371.3,363.9,371.3L363.9,371.3z"/>
		</g>
		<g class="st1">
			<path class="st20" d="M410.8,394.2c0.2,6.4-1.2,14-7,17.6c-2.6,1.6-5.7,1.8-8.6,1.6c-3.5-0.1-6.2-1.8-9-3.7
				c-6-3.8-11.7-8.3-16-14c-1.8-2.3-3.7-4.9-4.5-7.8c-1-3.8-0.8-8.1-1.1-12c0-0.2,0.3-0.2,0.3,0c0.3,3.5,0.4,7.2,1.2,10.6
				c0.7,3,2.5,5.6,4.2,8c3.7,5,8.5,9,13.6,12.5c2.4,1.6,4.8,3.4,7.5,4.5c2.9,1.3,7.2,1.2,10.2,0.1c7.3-2.5,8.4-11,8.8-17.6
				C410.2,393.8,410.8,393.8,410.8,394.2L410.8,394.2z"/>
		</g>
		<g class="st1">
			<path class="st20" d="M385.8,380.2c8.9,4.2,17.3,9.8,25.2,15.6c0.4,0.3,0,0.9-0.4,0.6c-8.1-5.9-16.5-10.8-25.1-15.8
				C385.3,380.5,385.5,380.1,385.8,380.2L385.8,380.2z"/>
		</g>
		<g class="st1">
			<path class="st20" d="M385.1,386.8c4.5,2.4,8.6,6.1,12.4,9.3c2,1.7,4,3.4,6,5.2c1.8,1.7,4,3.3,5.3,5.4c0.1,0.2-0.1,0.4-0.3,0.3
				c-2-1.2-3.6-3.2-5.3-4.7c-2-1.8-4-3.5-6-5.2c-4-3.4-8.6-6.2-12.5-9.7C384.5,387,384.8,386.7,385.1,386.8L385.1,386.8z"/>
		</g>
		<g class="st1">
			<path class="st20" d="M380,388.6c5.7,7.7,10.8,16,15.7,24.2c0.2,0.3-0.3,0.5-0.4,0.3c-5.2-8-10.8-16-15.8-24.1
				C379.2,388.6,379.8,388.3,380,388.6L380,388.6z"/>
		</g>
		<g class="st1">
			<path class="st20" d="M374.1,388.5c0.3,3.4,0.1,7.1,0,10.5c0,0.5-0.7,0.5-0.7,0c-0.3-3.4-0.5-7.3,0.1-10.6
				C373.5,388.1,374,388.2,374.1,388.5L374.1,388.5z"/>
		</g>
		<g class="st1">
			<path class="st20" d="M368.6,384c-0.1,2-0.5,4.1-1.1,6.1c-0.1,0.4-0.7,0.2-0.6-0.2c0.4-2,0.9-4,1.3-6
				C368.2,383.7,368.6,383.8,368.6,384L368.6,384z"/>
		</g>
		<g class="st1">
			<path class="st20" d="M409.1,406.3c-0.7,4.7-4,10.1-8.9,10.9c-5.8,1-12.2-3.6-16.5-7c-5.5-4.3-10.9-9.2-15.5-14.6
				c-3.9-4.6-4.3-10.7-4.3-16.5c0-0.2,0.4-0.2,0.4,0c0.3,5.7,0.5,11.5,4.4,16c3.6,4.3,7.9,8.1,12.1,11.8c4.2,3.7,8.7,7.2,14.1,9
				c3.6,1.2,6.9,0.8,9.7-1.9c2.2-2.1,3.4-4.9,4-7.9C408.6,405.8,409.2,405.9,409.1,406.3L409.1,406.3z"/>
		</g>
		<g class="st1">
			<path class="st21" d="M405.9,390.6c1.7,1.6,3.9,5.1,0.9,6.8c-2.4,1.4-5.7-2.4-6.4-4.4c-0.9-2.2,0.7-5.8,3.5-4.8
				c1.4,0.5,2.6,2.2,3.4,3.5c0.9,1.5,1.4,3.2,0.8,4.9c-0.1,0.3-0.4,0.6-0.7,0.6c-4-0.1-7.3-3.5-7.3-7.5c0-0.3,0.2-0.7,0.6-0.7
				c3.2-0.5,6.2,2.1,6.2,5.4c0,0.7-0.7,0.9-1.2,0.7c-1.9-0.9-3.3-2.4-3.9-4.4c-0.3-0.9,0.8-1.3,1.4-0.8c1.3,1,2.1,2.3,2.5,3.9
				c0.2,0.9-0.8,1.4-1.4,0.8c-1.5-1.3-2.2-3.1-2.2-5c0-0.5,0.6-1.1,1.1-0.8c2.4,1,4.1,2.9,4.7,5.5c0.1,0.6-0.3,1.1-0.8,1.1
				c-3.1,0.1-5.6-2.5-5.6-5.6c0-0.6,0.6-1,1.1-0.9c1.7,0.4,3.2,1.3,4.2,2.8c0.8,1.1,1.8,3.2,0.9,4.6c-1,1.6-3.1,0.4-4.2-0.4
				c-1.4-1.1-2.3-2.7-2.6-4.5c-0.1-0.6,0.2-1.1,0.9-1.1c0.6,0,1.3,0,1.9,0c1.1,0,1.1,1.6,0,1.7c-0.6,0.1-1.3,0.1-1.9,0.1
				c0.3-0.4,0.6-0.8,0.9-1.1c0.2,1.1,0.6,2.1,1.3,3c0.3,0.4,0.7,0.7,1.1,0.9c0.2,0.1,0.4,0.2,0.6,0.3c0.6,0.2,0.8,0,0.6-0.4
				c0.1-0.8-0.9-2.1-1.4-2.6c-0.7-0.8-1.7-1.2-2.7-1.5c0.4-0.3,0.7-0.6,1.1-0.9c0,2.2,1.7,3.8,3.9,3.8c-0.3,0.4-0.6,0.7-0.8,1.1
				c-0.4-2-1.6-3.5-3.4-4.3c0.4-0.3,0.7-0.6,1.1-0.8c0,1.6,0.5,2.8,1.7,3.8c-0.5,0.3-0.9,0.6-1.4,0.8c-0.3-1.4-1-2.3-2.1-3.2
				c0.5-0.3,0.9-0.5,1.4-0.8c0.5,1.6,1.6,2.8,3.2,3.5c-0.4,0.2-0.8,0.5-1.2,0.7c0-2.3-1.9-4.3-4.2-3.9c0.2-0.2,0.4-0.5,0.6-0.7
				c0,3.2,2.6,5.9,5.8,6c-0.2,0.2-0.5,0.4-0.7,0.6c0.7-2-0.6-3.8-1.8-5.3c-0.7-0.8-1.6-1.9-2.7-0.9c-0.9,0.8-0.8,2-0.3,3
				c0.6,1.2,2.3,3.2,3.7,3.3c1.3,0.1,1.7-1.2,1.3-2.3c-0.3-1-1.1-1.7-1.7-2.5C404.6,390.9,405.3,390.2,405.9,390.6L405.9,390.6z"/>
		</g>
		<g class="st1">
			<path class="st22" d="M403.4,391.5c1.2,0.4,2.1,1.2,2.7,2.4c0.5,0.9,1,2.3-0.3,2.7c-2.4,0.6-3.1-2.8-3.2-4.5
				c0-0.2,0.2-0.4,0.4-0.4c0.5,0,0.9-0.1,1.4,0c0.3,0.1,0.3,0.5,0,0.6c-0.5,0.1-0.9,0.2-1.4,0.2c0.1-0.1,0.3-0.3,0.4-0.4
				c0,1.2,0.2,3.1,1.5,3.6c0.5,0.2,0.9-0.3,0.7-0.8c-0.1-0.4-0.3-0.8-0.6-1.1c-0.5-0.7-1.2-1.3-1.9-1.7
				C402.9,391.9,403.1,391.4,403.4,391.5L403.4,391.5z"/>
		</g>
		<path class="st4" d="M424.9,334.4c-0.4-2.6-2.3-4.3-4.6-5.4c-0.9-0.6-1.9-1.1-2.9-1.4c-4.9-3.1-11.1-0.7-15.7,2.1
			c-5.5,3.4-10.9,7.1-15.6,11.5c-1.8,1.6-3.3,3.4-4.8,5.2c-2.6,2.2-4.7,5.1-6.7,7.8c-2.2,2.8-5,5.7-6.9,8.9
			c-0.4-0.9-0.9-1.8-1.5-2.5c0.4-0.9,0.8-1.8,1.3-2.7c0.8-1.6,1.4-3.2,1.9-4.9c0.6-1.9,1.3-3.7,2.7-5.3c0.8-1,2.1-1.5,2.6-2.6
			c0.2-0.5-0.5-1.3-1.1-0.9c-0.3,0.1-0.5,0.2-0.8,0.3c-0.3,0-0.7,0.3-0.8,0.6c-0.6,1.7-1.8,3.2-2.5,5c-0.7,1.8-1.1,3.7-1.7,5.5
			c-0.6,1.6-1.5,3.1-2.1,4.6c-0.3-0.2-0.6-0.5-0.9-0.6c-1.1,0-1.8,0.1-2.4,0.4c-0.9-2.6-2.2-5-3.3-7.5c-1.5-3.2-2.8-6.3-5.3-9.1
			c-0.5-0.5-1.4-0.1-1.3,0.5c0.1,1.3,0.9,2,1.9,3c1.6,1.6,2.5,3.1,3.4,5.1c1.3,2.9,2.8,5.7,3.9,8.6c-0.5,0.5-0.8,1.3-1.3,2.2
			c-0.4,0.8-0.7,1.7-1,2.5c-0.6-0.7-1.2-1.5-1.8-2.2c-2-3.1-4.8-6.1-7-8.9c-2.1-2.6-4.2-5.6-6.8-7.8c-1.5-1.8-3.1-3.6-4.8-5.2
			c-4.8-4.4-10.3-8.1-15.8-11.5c-4.6-2.8-10.9-5.2-15.9-2.1c-1,0.3-2,0.7-3,1.4c-2.3,1-4.3,2.8-4.7,5.4c-0.7,4.4,0.6,9.6,3.5,13
			c0.1,0.1,0.2,0,0.2-0.1c-1.8-3.8-3.4-7.9-2.4-12.2c0.9-4.2,4.5-4.3,7.6-5.9c0.1,0,0.2,0,0.3-0.1c6.3-0.7,12.3,3.6,17.5,7.5
			c3.5,2.7,7,5.4,10.4,8.2c0.1,0.1,0.2,0.2,0.3,0.2c2.5,3.1,5.5,5.9,8.4,8.6c1.7,1.6,3.4,3.4,5.1,5.1c1,1.1,1.9,2.3,2.9,3.4
			c1.9,2.2,3.7,4.5,5.7,6.6c0,0.1,0,0.1,0,0.2c-0.6,12.2-0.2,24.4,1.2,36.6c0.2,1.4,0.4,2.8,0.9,4.1c0.6,1.5,3,1.2,3.2-0.4
			c1.4-13.9,3.7-26.3,4.7-40.2c0.1-0.8,0-1.7-0.1-2.6c1.2-1.4,2.3-2.9,3.5-4.3c1-1.1,1.9-2.3,2.9-3.4c1.7-1.7,3.4-3.4,5-5.1
			c2.8-2.7,5.8-5.5,8.2-8.6c0.1-0.1,0.2-0.2,0.3-0.2c3.4-2.8,6.7-5.5,10.2-8.2c5.1-3.9,11-8.2,17.2-7.5c0.1,0,0.2,0,0.3,0.1
			c3,1.6,6.6,1.6,7.5,5.9c0.9,4.3-0.6,8.4-2.4,12.2c-0.1,0.1,0.1,0.2,0.2,0.1C424.3,344,425.6,338.8,424.9,334.4z"/>
	</g>
	<g>
		<g>
			<path class="st13" d="M219.3,134.3c-14.1-16.7-30-31.8-43.9-48.8c-15-18.4-37.2-41.6-41.4-65.5c-2.4-13.3-23.8-0.9-13.3,7.8
				c19,15.7,30.4,41.9,45.9,61.3c14.5,18.2,30.1,36.4,48.6,50.7C218.5,142.2,221.7,137,219.3,134.3L219.3,134.3z"/>
		</g>
		<g>
			<path class="st13" d="M287.3,144c15.5-15.5,29.2-32.4,41.6-50.4c6.1-8.9,11.4-18.1,16.7-27.5c6.4-11.4,13.1-30.4,25.2-37
				c14.8-8.1-14.2-23.5-11.1-4.5c3.2,19.5-23.5,48-34.3,62.4c-13.5,18.1-28.4,35-43.5,51.8C278.6,142.3,283.8,147.5,287.3,144
				L287.3,144z"/>
		</g>
		<g>
			<path class="st13" d="M212.5,166.5c-11.2-20.7-41.7-49.9-64.8-28.4c-12.4,11.5-18.9,30.3-29,43.8c-10,13.5-40,54.5-60,53.4
				c-19.9-1.1,1.1,32.1,8.4,11c3.5-10.2,24.4-21.7,32.1-29.1c9.7-9.4,18.7-19.6,26.8-30.4c7.9-10.5,13.9-21.9,21.1-32.9
				c18.8-28.7,45.9-0.7,59.8,16.9C209.5,174,214.4,169.9,212.5,166.5L212.5,166.5z"/>
		</g>
		<g>
			<path class="st13" d="M200.1,277.5c-19.8-19.3-43.2-31.8-69.2-40.8c-3.4-1.2-7,1.9-7,5.3c0,30.4-3,60.5-10.3,90
				c-6.9,28-15.9,73.4-39.9,91.1c-6.9,5.1-6.2,15.2,2.4,18.1c0.7,0.2,1.5,0.5,2.2,0.7c9,3.1,15.6-9.3,9.1-15.7
				c-4.4-4.3,17.3-42,19.8-47.8c6-14.3,10.8-29.2,14.8-44.2c8-30.2,12-61.2,13-92.3c-2.3,1.8-4.6,3.5-7,5.3
				c24.4,9,45.9,21.9,67.3,36.4C199.1,286.2,203.2,280.6,200.1,277.5L200.1,277.5z"/>
		</g>
		<g>
			<path class="st13" d="M299.5,170.1c10.6-15.6,28.8-40.4,48.6-16.1c7.6,9.3,11.9,23.9,18.6,34.2c5.2,8.2,11,16,17.2,23.6
				c7.1,8.6,28.4,24.2,30.7,34.6c4.4,20.6,30.5-11.1,8.4-11c-17.3,0.1-41-39.7-48.6-51.6c-9.1-14.4-14.7-36.2-27.6-47.6
				c-20.9-18.4-45.6,12.7-53.4,30.4C291.5,170.6,296.8,173.9,299.5,170.1L299.5,170.1z"/>
		</g>
		<g>
			<path class="st13" d="M309.4,283c17.9-14.4,35.9-27,57-36.3c-2.8-1.6-5.6-3.2-8.4-4.8c0.8,31.1,4.4,62,11.1,92.3
				c3.3,14.8,7.2,29.5,12.3,43.7c3.3,9.3,21.1,41.2,14.9,50.2c-4.6,6.7,3,15.8,10.4,13.6c0.6-0.2,1.3-0.4,1.9-0.6
				c6.6-1.9,10.5-11.7,4.4-16.6c-22.8-18.5-30-65.1-35.6-92.6c-6.1-29.7-8.4-59.7-8.4-90c0-3.2-3.6-6.8-7-5.4
				c-22.7,9.6-42.1,22.1-58.2,40.9C300.5,281.4,305.5,286.2,309.4,283L309.4,283z"/>
		</g>
		<path class="st23" d="M320.2,460.5h-137c-9.1,0-16.5-7.4-16.5-16.5V215.2c0-6.5,5.3-11.7,11.7-11.7h146.5
			c6.5,0,11.7,5.3,11.7,11.7l0,228.8C336.7,453.1,329.3,460.5,320.2,460.5z"/>
		<path class="st23" d="M300.5,249.4h-97.5c-6.5,0-11.7-5.3-11.7-11.7v-97.5c0-6.5,5.3-11.7,11.7-11.7h97.5
			c6.5,0,11.7,5.3,11.7,11.7v97.5C312.2,244.1,307,249.4,300.5,249.4z"/>
		<g>
			<path class="st13" d="M241.9,74.4c-0.6-8.8-7.1-16.8-14.3-21.4c-6.4-4.1-17.4-8.2-24.5-3.6c-0.6,0.4-0.6,1.4,0.2,1.7
				c7,1.9,13.5,1.2,20.1,5.3C230.7,61,234,67.3,237.1,75C238.1,77.3,242.1,77.4,241.9,74.4L241.9,74.4z"/>
		</g>
		<g>
			<path class="st13" d="M266.6,74.2c2.7-6.8,5-12.9,11.1-17.3c5.3-3.8,10.7-3.1,16.5-5.1c0.6-0.2,1-1.1,0.4-1.5
				c-5.6-4.5-14.8-0.8-20.1,2.7c-6.6,4.5-12.5,12.4-12.7,20.6C261.8,76.5,265.7,76.6,266.6,74.2L266.6,74.2z"/>
		</g>
		<path class="st23" d="M294.1,103.7c0,23.4-19,62.3-42.4,62.3s-42.4-38.9-42.4-62.3s19-42.4,42.4-42.4S294.1,80.3,294.1,103.7z"/>
		<path class="st24" d="M302.7,211.8c-26.5-8.3-106.1,0-106.1,0s-25.2,10.8-23.1,24.4c0,0,25-5.4,46.5,3.9
			c12,5.2,22.5,26.1,29.5,43.7v150c0,0,0.8,4.4,4.9,4.4c4.1,0,4.9-4.4,4.9-4.4V289.7c3.5-23.4,17.1-58.6,68.6-53.3
			C327.9,236.4,329.3,220.2,302.7,211.8z"/>
		<g>
			<defs>
				<path id="SVGID_1_" d="M284.7,138.2c5.9-11.5,9.4-24.4,9.4-34.5c0-23.4-19-42.4-42.4-42.4c-23.4,0-42.4,19-42.4,42.4
					c0,10.1,3.5,23,9.4,34.5c-16.6,10.8-27.5,29.5-27.5,50.7c0,33.4,27.1,60.5,60.5,60.5h0c33.4,0,60.5-27.1,60.5-60.5
					C312.2,167.6,301.2,148.9,284.7,138.2z"/>
			</defs>
			<clipPath id="SVGID_2_">
				<use xlink:href="#SVGID_1_"  style="overflow:visible;"/>
			</clipPath>
			<g class="st25">
				<path class="st26" d="M225.9,114.2c14.3,7.8,27.1-14.2,12.7-21.8c-10.3-5.4-15.1-13.5-21.4-22.8c-7.5-11-22.2-3.7-20.5,8.6
					C199,93.7,212.8,107,225.9,114.2z"/>
				<path class="st26" d="M281.3,118.2c15.4-10.3,31.3-28.9,26.9-48.6c-1-4.5-7-5.8-10.1-2.7C288.1,77.3,281.6,89,268.3,96
					C253.6,103.8,267.5,127.4,281.3,118.2z"/>
				<path class="st26" d="M302.7,140c2.7,0.3,4-4.2,1.4-5.3c-23.2-10.5-46,11.8-54.7,33.9c-12.5-23.4-39.5-44.2-64.9-26
					c-1.8,1.3-1.4,4.7,1.2,4.6c11.5-0.5,22.1-3.2,33.2,1.7c14.5,6.5,22.5,19.1,27.2,33.8c1.5,4.8,7.9,3.6,8.5-1.1
					C257.2,158.6,279.3,137.6,302.7,140z"/>
				<path class="st26" d="M214.9,172.3c-8.9-4.4-18-6.7-27.9-4.8c-6.9,1.3-5.7,10.9,0,12.8c6.3,2.1,12.8,4.3,18.1,8.4
					c5.5,4.3,8.2,11.5,14.3,14.8c6.2,3.3,16-0.7,15.3-8.8C233.7,184,224,176.8,214.9,172.3z"/>
				<path class="st26" d="M314.8,160.6c-18.4-5.2-35.7,17.7-37.2,33.7c-1,11.1,16.2,12.8,19,2.6c1.5-5.5,3-10.3,7.1-14.5
					c4.1-4.2,9.7-6.3,14.1-10.2C321.8,168.6,319.6,162,314.8,160.6z"/>
			</g>
		</g>
	</g>
</g>
<g id="DESIGNED_BY_FREEPIK" class="st0">
	<g class="st1">
		<g id="XMLID_29_">
			<g id="XMLID_48_">
				<path id="XMLID_56_" class="st27" d="M260.1,465.5c-0.4,0.4-0.8,0.9-1.1,1.5l-0.5-0.2c-0.1-0.3-0.3-0.5-0.7-0.5
					c-0.3,0-0.6,0.3-0.5,0.7c0,0.3,0.3,0.6,0.7,0.5c0.1,0,0.1,0,0.2-0.1l0.5,0.2c-0.3,0.6-0.4,1.1-0.5,1.7l0.7,0.1
					c0.2-1.3,0.8-2.5,1.8-3.5L260.1,465.5z"/>
				<path id="XMLID_55_" class="st27" d="M265.6,463.2c-0.2,0-0.3,0-0.5,0l-0.1-0.6c0.2-0.1,0.3-0.4,0.3-0.6c0-0.4-0.4-0.7-0.8-0.6
					c-0.4,0-0.7,0.4-0.6,0.8c0,0.3,0.2,0.5,0.4,0.6l0.1,0.6c-0.7,0.1-1.4,0.3-2.1,0.6l0.3,0.7c0.9-0.4,1.9-0.7,3-0.7
					c0.5,0,1,0.1,1.5,0.2l0.2-0.7C266.7,463.2,266.1,463.2,265.6,463.2z"/>
				<path id="XMLID_54_" class="st27" d="M272.2,465.7c0.3,0,0.6-0.3,0.5-0.7c0-0.3-0.3-0.6-0.7-0.5c-0.3,0-0.5,0.3-0.5,0.6
					l-0.4,0.4c-0.4-0.4-0.9-0.8-1.4-1.1l-0.4,0.6c1.1,0.7,2,1.7,2.6,2.9l0.7-0.3c-0.3-0.6-0.6-1.1-0.9-1.5l0.4-0.4
					C272.1,465.7,272.1,465.7,272.2,465.7z"/>
				<path id="XMLID_53_" class="st27" d="M265,473.4c-0.4,0-0.8,0-1.2,0c-0.9,0-1.7-0.1-2.5-0.2c-0.4-0.1-0.8-0.2-1.3-0.3
					c1,1.9,3.1,3.1,5.4,3.1c2.9,0,5.3-1.9,5.9-4.5c-0.7,0.4-1.5,0.8-2.5,1.1C267.8,473,266.5,473.3,265,473.4z"/>
				<path id="XMLID_49_" class="st27" d="M265.6,464.7c-3.4,0-6.1,2.7-6.1,5.9c0,0.4,0,0.8,0.1,1.3c0.7,0.5,2.7,0.9,5.3,0.7
					c2.9-0.2,5.3-1,6.7-2.2c0-0.2,0-0.4,0-0.6C271.2,466.9,268.7,464.7,265.6,464.7z M263.4,471.2c-1,0-1.8-0.8-1.8-1.8
					c0-1,0.8-1.9,1.8-1.9c1,0,1.8,0.8,1.8,1.9C265.3,470.4,264.5,471.2,263.4,471.2z M268.2,470.3c-0.8,0-1.4-0.6-1.4-1.4
					s0.6-1.4,1.4-1.4s1.4,0.6,1.4,1.4S268.9,470.3,268.2,470.3z"/>
			</g>
			<path id="XMLID_46_" class="st27" d="M281.6,466.5c-0.3-0.1-0.8-0.3-1.4-0.2c-0.6,0.1-0.8,0.3-0.8,1v0.9h2.2v1.7h-2.2v5.5h-1.9
				v-5.5h-1.3v-1.7h1.3v-0.9c0-1.7,0.9-2.8,2.6-2.8c0.6,0,1.2,0.1,1.6,0.3V466.5z"/>
			<path id="XMLID_44_" class="st27" d="M286.3,469.9c-0.2,0-0.4,0-0.5,0c-0.9,0-1.5,0.5-1.5,1.6v3.9h-1.9v-7.2h1.9v0.8
				c0.5-0.7,1.1-1,2-1c0.4,0,0.8,0.1,1.1,0.3L286.3,469.9z"/>
			<path id="XMLID_41_" class="st27" d="M294,471.8c0,0.2,0,0.5,0,0.7h-5.1c0.2,1,0.9,1.5,1.8,1.5c0.6,0,1.3-0.3,1.8-0.7l1.1,1.2
				c-0.8,0.7-1.9,1.1-3.1,1.1c-2.2,0-3.7-1.5-3.7-3.8c0-2.3,1.5-3.8,3.6-3.8C292.5,468,294,469.5,294,471.8z M288.9,471.1h3.2
				c-0.2-0.9-0.7-1.4-1.6-1.4C289.6,469.7,289,470.2,288.9,471.1z"/>
			<path id="XMLID_38_" class="st27" d="M301.6,471.8c0,0.2,0,0.5,0,0.7h-5.1c0.2,1,0.9,1.5,1.8,1.5c0.6,0,1.3-0.3,1.8-0.7l1.1,1.2
				c-0.8,0.7-1.9,1.1-3.1,1.1c-2.2,0-3.7-1.5-3.7-3.8c0-2.3,1.5-3.8,3.6-3.8C300.2,468,301.6,469.5,301.6,471.8z M296.5,471.1h3.2
				c-0.2-0.9-0.7-1.4-1.6-1.4C297.2,469.7,296.7,470.2,296.5,471.1z"/>
			<path id="XMLID_35_" class="st27" d="M310,471.8c0,2.2-1.5,3.8-3.5,3.8c-1,0-1.6-0.4-2.1-0.9v3.7h-1.9v-10.1h1.9v0.8
				c0.5-0.6,1.2-1,2.1-1C308.5,468,310,469.6,310,471.8z M304.3,471.8c0,1.1,0.7,2,1.8,2c1.1,0,1.8-0.9,1.8-2c0-1.1-0.7-2-1.8-2
				C305,469.8,304.3,470.6,304.3,471.8z"/>
			<path id="XMLID_32_" class="st27" d="M313.1,465.8c0,0.7-0.5,1.2-1.2,1.2c-0.7,0-1.2-0.5-1.2-1.2c0-0.7,0.5-1.2,1.2-1.2
				C312.5,464.6,313.1,465.1,313.1,465.8z M312.8,475.4h-1.9v-7.2h1.9V475.4z"/>
			<path id="XMLID_30_" class="st27" d="M316,470.7l2.7-2.6h2.4l-3.5,3.4l3.5,3.8h-2.4l-2.7-2.9v2.9h-1.9v-10.7h1.9V470.7z"/>
		</g>
		<g>
			<path class="st27" d="M184.4,475.3v-1.1c-0.5,0.7-1.4,1.2-2.4,1.2c-1.8,0-3.1-1.4-3.1-3.7c0-2.3,1.3-3.7,3.1-3.7
				c1,0,1.8,0.5,2.4,1.2v-3.8h1.1v9.8H184.4z M184.4,473.4v-3.2c-0.4-0.6-1.2-1.1-2.1-1.1c-1.4,0-2.3,1.2-2.3,2.7
				c0,1.6,0.8,2.7,2.3,2.7C183.2,474.5,184,474,184.4,473.4z"/>
			<path class="st27" d="M186.9,471.7c0-2.1,1.5-3.7,3.5-3.7c2.1,0,3.4,1.7,3.4,3.8v0.3h-5.7c0.1,1.3,1,2.4,2.5,2.4
				c0.8,0,1.6-0.3,2.2-0.9l0.5,0.7c-0.7,0.7-1.7,1.1-2.8,1.1C188.4,475.5,186.9,474,186.9,471.7z M190.4,468.9
				c-1.5,0-2.3,1.3-2.3,2.4h4.6C192.7,470.3,192,468.9,190.4,468.9z"/>
			<path class="st27" d="M194.6,474.4l0.6-0.8c0.5,0.5,1.4,1,2.3,1c1.1,0,1.7-0.5,1.7-1.2c0-1.7-4.4-0.7-4.4-3.3c0-1.1,1-2,2.6-2
				c1.2,0,2.1,0.5,2.6,1l-0.5,0.8c-0.4-0.5-1.2-0.9-2.1-0.9c-1,0-1.6,0.5-1.6,1.1c0,1.6,4.4,0.5,4.4,3.3c0,1.2-1,2.1-2.8,2.1
				C196.3,475.5,195.3,475.1,194.6,474.4z"/>
			<path class="st27" d="M201.5,466.5c0-0.4,0.3-0.7,0.7-0.7c0.4,0,0.7,0.3,0.7,0.7c0,0.4-0.3,0.7-0.7,0.7
				C201.8,467.2,201.5,466.9,201.5,466.5z M201.7,475.3v-7.1h1.1v7.1H201.7z"/>
			<path class="st27" d="M204.6,477.1l0.6-0.8c0.6,0.7,1.3,1,2.3,1c1.2,0,2.3-0.6,2.3-2.1v-1c-0.5,0.7-1.4,1.3-2.4,1.3
				c-1.8,0-3.1-1.4-3.1-3.7c0-2.3,1.3-3.7,3.1-3.7c1,0,1.8,0.5,2.4,1.2v-1.1h1.1v6.9c0,2.3-1.6,3.1-3.4,3.1
				C206.2,478.2,205.4,477.9,204.6,477.1z M209.7,473.3v-3.1c-0.4-0.6-1.2-1.1-2.1-1.1c-1.4,0-2.3,1.1-2.3,2.7
				c0,1.6,0.8,2.7,2.3,2.7C208.5,474.4,209.3,473.9,209.7,473.3z"/>
			<path class="st27" d="M217.4,475.3v-4.6c0-1.2-0.6-1.6-1.6-1.6c-0.9,0-1.7,0.5-2.1,1.1v5.2h-1.1v-7.1h1.1v1
				c0.5-0.6,1.5-1.2,2.5-1.2c1.5,0,2.3,0.7,2.3,2.3v5H217.4z"/>
			<path class="st27" d="M219.9,471.7c0-2.1,1.5-3.7,3.5-3.7c2.1,0,3.4,1.7,3.4,3.8v0.3h-5.7c0.1,1.3,1,2.4,2.5,2.4
				c0.8,0,1.6-0.3,2.2-0.9l0.5,0.7c-0.7,0.7-1.7,1.1-2.8,1.1C221.4,475.5,219.9,474,219.9,471.7z M223.4,468.9
				c-1.5,0-2.3,1.3-2.3,2.4h4.6C225.7,470.3,225,468.9,223.4,468.9z"/>
			<path class="st27" d="M233.4,475.3v-1.1c-0.5,0.7-1.4,1.2-2.4,1.2c-1.8,0-3.1-1.4-3.1-3.7c0-2.3,1.3-3.7,3.1-3.7
				c1,0,1.8,0.5,2.4,1.2v-3.8h1.1v9.8H233.4z M233.4,473.4v-3.2c-0.4-0.6-1.2-1.1-2.1-1.1c-1.4,0-2.3,1.2-2.3,2.7
				c0,1.6,0.8,2.7,2.3,2.7C232.1,474.5,233,474,233.4,473.4z"/>
			<path class="st27" d="M239.7,475.3v-9.8h1.1v3.8c0.6-0.8,1.4-1.2,2.4-1.2c1.8,0,3.1,1.5,3.1,3.7c0,2.3-1.3,3.7-3.1,3.7
				c-1,0-1.9-0.5-2.4-1.2v1.1H239.7z M242.9,474.5c1.4,0,2.3-1.2,2.3-2.7c0-1.6-0.8-2.7-2.3-2.7c-0.9,0-1.7,0.5-2.1,1.1v3.2
				C241.2,474,242,474.5,242.9,474.5z"/>
			<path class="st27" d="M247.5,477.1c0.2,0.1,0.4,0.1,0.6,0.1c0.5,0,0.8-0.2,1.1-0.7l0.5-1.1l-3-7.1h1.2l2.4,5.8l2.3-5.8h1.2
				l-3.5,8.5c-0.4,1-1.1,1.4-2.1,1.4c-0.2,0-0.6,0-0.8-0.1L247.5,477.1z"/>
		</g>
	</g>
</g>
</svg>
