<?xml version="1.0" encoding="utf-8"?>
<!-- Generator: Adobe Illustrator 22.0.1, SVG Export Plug-In . SVG Version: 6.00 Build 0)  -->
<svg version="1.0" id="Layer_2" xmlns="http://www.w3.org/2000/svg" xmlns:xlink="http://www.w3.org/1999/xlink" x="0px" y="0px"
	 viewBox="0 0 540 509" style="enable-background:new 0 0 540 509;" xml:space="preserve">
<style type="text/css">
	.st0{fill:#E94E1B;}
	.st1{fill:#3C3C3B;}
	.st2{fill:#BD3F16;}
	.st3{fill:#D44719;}
	.st4{fill:#575756;}
	.st5{fill:#F39200;}
	.st6{fill:#9D9D9C;}
	.st7{fill:#F9B233;}
	.st8{fill:#706F6F;}
	.st9{fill:#FFFFFF;}
	.st10{fill:#C6C6C6;}
	.st11{fill:#005875;}
	.st12{fill:#FFC990;}
	.st13{fill:#131313;}
	.st14{fill:#006080;}
	.st15{fill:#006B8F;}
	.st16{opacity:0.1;fill:#050504;}
	.st17{opacity:0.15;fill:#1D1D1B;}
	.st18{fill:#DADADA;}
	.st19{fill:#EDEDED;}
	.st20{fill:#E6332A;}
</style>
<g>
	<g>
		<g>
			<g>
				<g>
					<path class="st0" d="M161.5,365.6v-32.1l-20.7-170.8c-1.2-14.6-13.1-22.3-25.4-22.3c-15.4,0-31.4,12-27.8,37.4l20.6,155.7
						v152.4H300V365.6H161.5z"/>
					<rect x="117.9" y="485.9" class="st1" width="20.1" height="9.6"/>
					<rect x="271.3" y="485.9" class="st1" width="19.4" height="9.6"/>
				</g>
			</g>
			<path class="st0" d="M117.2,308.6c-10.8,0-19.6,14.9-19.6,33.4c0,18.4,8.8,33.4,19.6,33.4c10.8,0,19.6-14.9,19.6-33.4
				C136.8,323.5,128,308.6,117.2,308.6z"/>
			<rect x="269.6" y="363" class="st2" width="30.4" height="122.9"/>
			<rect x="114.1" y="308.6" class="st0" width="175.1" height="66.8"/>
			<ellipse class="st2" cx="289.2" cy="342" rx="19.6" ry="33.4"/>
		</g>
		<path class="st3" d="M231.3,342h-18.2v144h56.5V383.8C269.6,360.7,252.5,342,231.3,342z"/>
		<polygon class="st0" points="28.5,140.5 115.3,140.5 141.2,316.6 56.7,316.6 		"/>
		<path class="st3" d="M147.1,316.6H84.8L68.5,182.8c-0.8-6.9,4.1-13,10.4-13h40.7c5.8,0,10.8,4.7,11.5,11L147.1,316.6z"/>
		<path class="st3" d="M74.6,365.6v-32.1L53.9,162.7c-1.2-14.6-13.1-22.3-25.4-22.3c-15.4,0-31.4,12-27.8,37.4l20.6,155.7v152.4
			h191.9V365.6H74.6z"/>
		<rect x="31" y="485.9" class="st1" width="20.1" height="9.6"/>
		<rect x="184.4" y="485.9" class="st1" width="19.4" height="9.6"/>
		<path class="st0" d="M30.3,308.6c-10.8,0-19.6,14.9-19.6,33.4c0,18.4,8.8,33.4,19.6,33.4c10.8,0,19.6-14.9,19.6-33.4
			C49.9,323.5,41.1,308.6,30.3,308.6z"/>
		<rect x="182.7" y="363" class="st2" width="30.4" height="122.9"/>
		<rect x="27.2" y="308.6" class="st0" width="175.1" height="66.8"/>
		<path class="st2" d="M202.3,308.6c-10.8,0-19.6,14.9-19.6,33.4c0,18.4,8.8,33.4,19.6,33.4c10.8,0,19.6-14.9,19.6-33.4
			C221.9,323.5,213.2,308.6,202.3,308.6z"/>
	</g>
	<g>
		<path class="st1" d="M343.2,413.7c-6.6,0-13-2.5-17.9-7c-5-4.7-9-11.1-12.6-20.4c-7.5-19.6-9.7-40.8-11.5-62.7l-0.3-3.6
			c-1.5-19.1-3.1-38.8-8.7-56.9l8.7-3.3c6,19.2,7.6,39.6,9.2,59.3l0.3,3.6c1.7,21,3.8,41.4,10.8,59.7c3,7.7,6.1,13,10,16.6
			c4,3.7,9.8,5.3,15.3,4.3c6.1-1.2,10.2-6.9,12.4-16.9c2.1-9.6,4.8-19.6,10.4-27.9c7-10.4,17.8-16.1,28.1-15.1
			c9.1,0.9,14.8,6.5,21.5,12.8c1.7,1.6,3.4,3.3,5.4,5.1l-5.9,7.8c-2-1.8-3.9-3.6-5.6-5.3c-6.1-5.9-10.2-9.8-16.2-10.4
			c-7.2-0.8-14.7,3.5-19.9,11c-4.3,6.4-6.6,14.3-8.8,24.2c-3.9,17.8-12.9,23.1-19.7,24.5C346.5,413.5,344.9,413.7,343.2,413.7z"/>
		<path class="st4" d="M423.3,356.1c-10.2,12.7,0.1,0.4-10.2,12.7l-4.1-3.9l10.2-12.7L423.3,356.1z"/>
		<path class="st5" d="M493.5,394.6v62.8h-82.2v-62.8c0-24.5,18.2-44.4,40.7-44.4h0.8C475.2,350.2,493.5,370.1,493.5,394.6z"/>
		<g>
			<path class="st6" d="M424.7,490.2c0,5-3.7,9.1-8.3,9.1s-8.3-4.1-8.3-9.1c0-5,3.7-9.1,8.3-9.1S424.7,485.2,424.7,490.2z"/>
			<path class="st1" d="M419.1,492.4l-0.4,0.5c-1,1.1-2.6,1.4-3.8,0.5l-9.2-6.8v-10h9.2v6.6l4.3,4.9
				C420.2,489.3,420.2,491.2,419.1,492.4z"/>
			<path class="st6" d="M417.9,490.2c0,1-0.7,1.8-1.6,1.8c-0.9,0-1.6-0.8-1.6-1.8c0-1,0.7-1.8,1.6-1.8
				C417.2,488.5,417.9,489.3,417.9,490.2z"/>
			<polygon class="st1" points="508.8,476.6 463.6,476.6 483.4,454 508.8,431.4 			"/>
			<path class="st7" d="M501.4,386.7h-14.7c-4.8,0-8.7,4.2-8.7,9.5v53.8c0,4.1-3,7.4-6.8,7.4h-63.9c-4.2,0-7.6,3.7-7.6,8.3v13.9
				h79.8c2.8,0,5.1-2.5,5.1-5.6v-1.6h0.3c0-16.5,12.2-29.8,27.3-29.8v-44C512.3,392,507.5,386.7,501.4,386.7z"/>
			<ellipse class="st6" cx="513.4" cy="472.4" rx="24.6" ry="26.9"/>
			<path class="st1" d="M532.5,472.4c0,11.5-8.6,20.9-19.1,20.9c-10.6,0-19.1-9.3-19.1-20.9c0-11.5,8.6-20.9,19.1-20.9
				C523.9,451.6,532.5,460.9,532.5,472.4z"/>
			<ellipse class="st8" cx="513.4" cy="472.4" rx="5.5" ry="6"/>
			<path class="st9" d="M502.6,424.9h-17.7c-0.8,0-1.5-0.7-1.5-1.6v-29.8c0-0.9,0.7-1.6,1.5-1.6h17.7c0.8,0,1.5,0.7,1.5,1.6v29.8
				C504.1,424.2,503.4,424.9,502.6,424.9z"/>
			<path class="st1" d="M501.6,396c0,0.8-0.6,1.5-1.4,1.5h-13.6c-0.8,0-1.4-0.7-1.4-1.5l0,0c0-0.8,0.6-1.5,1.4-1.5h13.6
				C501,394.5,501.6,395.2,501.6,396L501.6,396z"/>
			<path class="st1" d="M501.6,400.9c0,0.8-0.6,1.5-1.4,1.5h-13.6c-0.8,0-1.4-0.7-1.4-1.5l0,0c0-0.8,0.6-1.5,1.4-1.5h13.6
				C501,399.4,501.6,400.1,501.6,400.9L501.6,400.9z"/>
			<path class="st1" d="M501.6,405.8c0,0.8-0.6,1.5-1.4,1.5h-13.6c-0.8,0-1.4-0.7-1.4-1.5l0,0c0-0.8,0.6-1.5,1.4-1.5h13.6
				C501,404.3,501.6,405,501.6,405.8L501.6,405.8z"/>
			<path class="st1" d="M501.6,410.7c0,0.8-0.6,1.5-1.4,1.5h-13.6c-0.8,0-1.4-0.7-1.4-1.5l0,0c0-0.8,0.6-1.5,1.4-1.5h13.6
				C501,409.2,501.6,409.8,501.6,410.7L501.6,410.7z"/>
			<path class="st1" d="M501.6,415.6c0,0.8-0.6,1.5-1.4,1.5h-13.6c-0.8,0-1.4-0.7-1.4-1.5l0,0c0-0.8,0.6-1.5,1.4-1.5h13.6
				C501,414.1,501.6,414.7,501.6,415.6L501.6,415.6z"/>
			<path class="st1" d="M501.6,420.4c0,0.8-0.6,1.5-1.4,1.5h-13.6c-0.8,0-1.4-0.7-1.4-1.5l0,0c0-0.8,0.6-1.5,1.4-1.5h13.6
				C501,419,501.6,419.6,501.6,420.4L501.6,420.4z"/>
		</g>
		<g>
			<polygon class="st1" points="106.8,273 81.9,235.1 92.1,224.5 109.8,236.5 117.2,264.6 			"/>
			<g>
				<path class="st10" d="M98.8,244.4l-1.5-8.7l142.3-28.6c6.9-1.4,14-0.5,20.4,2.7l21.3,10.4l-3.3,8.1l-21.3-10.4
					c-4.9-2.4-10.3-3.1-15.6-2.1L98.8,244.4z"/>
				<polygon class="st10" points="111.2,270.5 84.2,231 92.1,224.5 110.5,233.3 117.2,264.6 				"/>
				<polygon class="st6" points="88.7,231.7 92.5,228.6 107.7,235.9 113.6,263.4 111.7,265.2 				"/>
			</g>
		</g>
		<g>
			<path class="st11" d="M317.5,144.6L298.7,223l14.6,8.8l30.5-71.9c3-5.9,3.5-13.1,0.8-19c-2-4.3-5.2-7.7-9.2-8.6l-0.3-0.1
				C327.1,130.3,319.2,135.9,317.5,144.6z"/>
			<path class="st11" d="M297.5,91l44.1,45.2l-16.6,29.6L276.7,118c-6.4-5.8-14.4-20.1-7.2-28.9C269.4,89.1,281.3,74.7,297.5,91z"/>
			<path class="st11" d="M329.1,244.2c2.6,13.9,3.3,95.2-3.2,110.7c-0.8,11.8-31.1,16.5-34.3,2.1l-3.4-101
				C287.5,249.7,329.1,244.2,329.1,244.2z"/>
			<path class="st1" d="M356.1,474.7c-6.9-2.5-22.4-7.7-31.5,1c-7.4,7-15.6,7.8-18.7,10.8c-4.4,4.3-2.5,9.1-2.5,9.1h55.4V491
				C358.9,475.9,357.3,475.1,356.1,474.7z"/>
			<path class="st11" d="M358.6,482.1c-2-36.1-10-80.2-29.4-139c-6.6-16.8-8.7-24-22.2-17.1l-0.4,0.1c-11.2,2.4-17.4,18.2-15,31
				l32.5,118.7C336.4,479.1,345.3,485.6,358.6,482.1z"/>
			<path class="st1" d="M281.6,474.7c-6.9-2.5-22.4-7.7-31.5,1c-7.4,7-18.6,7.8-21.7,10.8c-4.4,4.3-2.5,9.1-2.5,9.1h58.5V491
				C284.5,475.9,282.8,475.1,281.6,474.7z"/>
			<path class="st12" d="M157.1,224.2c-0.9,3.8-1.3,4.3-4.1,6c-4.7,2.8-6.3,3.6-11.4,6.3c2.8,1.9,4.2,4.7,7.4,5.2
				c3.4,0.6,6.8-0.4,10.1-1.4c3.7-1.1,7.5-2.2,10.8-4.4c3.8-2.5,6.7-6.3,9.5-10c0.5-0.7,1-1.4,1.1-2.2c0.1-0.9-0.4-1.8-0.9-2.6
				c-2.8-4.2-7.4-6.6-12-8.1c-2.6-0.9-5.4-1.5-8.1-0.9c-6.1,1.4-11,8.1-16.9,10.3c-1.1,0.4-2.3,0.7-2.9,1.8c-0.5,1-0.1,2.3,0.7,3
				c0.8,0.7,1.9,0.9,2.9,0.8c2.2-0.1,4.1-1.4,6.1-2.3C151.6,224.6,155,223.4,157.1,224.2z"/>
			<g>
				<polygon class="st12" points="254.8,98.2 281.6,85.8 269.8,57.8 245.4,65.8 				"/>
				<g>
					<path class="st12" d="M236.4,92.1c1.9,1.7,4.2,2.7,6.9,1.8l5.7-2.1c1.8-0.8,3.7-2.3,5.5-4.3c0,0,0,0,0,0
						c4.8-5.4,8.4-14.6,5.5-23.9c0.1,0,0.2-0.1,0.3-0.1c0,0,0.1,0,0.1,0c4.2-1.6,12.1,0.8,11.3-3.8c-0.9-5.1,2.2-14,0.9-20.8
						c-8.6-29-24.8-22.1-34.7-19c-7.9,2.9-14.5,9.5-16.4,19.8c-0.6,3-0.7,6.4-0.3,10.1c0.2,1.9,0.5,3.9,1,6c1.1,1.7,2.2,3.1,2.2,3.1
						l-0.2,1.7l-1,7.7c-0.2,2,1.3,3.6,3.2,3.5l2.8,0c0.6,1.9,2.8,13.1,2.8,13.1C232.8,87.4,234.3,90.2,236.4,92.1z"/>
					<path class="st13" d="M272.9,66.6c-17,10-12.8-15.8-12.8-15.8s-2.2,8.4-3.1,10.9c-3,0.9-3,0.9-5.7,1.5
						c-7.6-24.6-6.1-37.1-29.8-23.4c0.6-11.9,9.6-23.9,18.1-24.2c14-0.4,27.3,0.4,32.3,14.6C275,38.4,277,42.9,272.9,66.6z"/>
					<path class="st12" d="M263.7,51.7c1.2,4.6-1,11-3.7,11.9c-2.8,0.9-3.4-3-4.7-7.5c-0.8-3-2.7-7.1,0.1-9
						C257.9,45.3,262,45,263.7,51.7z"/>
				</g>
				<path class="st14" d="M221.1,45.6l21.2-2.7c0,0,0,0,0,0l20.8-2.7l0.7-0.1l0.9-0.1l10-1.3L272,27.7c-2.3-8.5-10.9-15.1-19-14.9
					l-13,0.3c-11.4,0.3-19.3,11.3-19.3,23.8c0,0.4,0,0.7,0,1.1l0.1,2.9L221.1,45.6z"/>
				<path class="st15" d="M199.6,48.5c3.1,3.5,7.1,4.2,12.4,3.5c3.3-0.5,7.2-1.5,11.6-2.8c4.7-1.4,18-6,18.6-6.2
					c-6.9-1.8-13.4-2.8-21.4-2.1c0,0-4.6,1.5-9.5,3.1C205.7,45.9,199.5,48.1,199.6,48.5z"/>
				<path class="st16" d="M224.5,58.8l-0.2,1.7c14.1-4.7,27-13.6,40.3-20.6l-0.9,0.1l-0.5,0.3c0-0.1-0.1-0.1-0.1-0.2l-20.8,2.7
					c0,0,0,0,0,0c-0.7,0.2-14,4.9-18.6,6.2c-0.8,0.2-1.6,0.5-2.3,0.7c0.2,1.9,0.5,3.9,1,6C223.4,57.5,224.5,58.8,224.5,58.8z"/>
				<path class="st16" d="M236.4,92.1c1.9,1.7,4.2,2.7,6.9,1.8l5.7-2.1c1.8-0.8,3.7-2.3,5.5-4.3c0,0,0,0,0,0c1-3.1,1-6.4,0.6-9.6
					c-0.4-3.3-1.3-6.6-2.2-9.8c0.5,2.9,0.1,6-1,8.7c-1,2.8-2.6,5.2-4.4,7.5c-1.8,2.3-3.8,4.3-6.1,5.8
					C239.8,91.1,238.1,91.8,236.4,92.1z"/>
			</g>
			<path class="st14" d="M327.9,218.9c-13.6,8.3-27.5,14.1-42.4,13.7c-4.6-0.1-9.3-0.8-14.2-2.2c-4.7-9.8-12.8-39.3-17.3-56.2
				c-1.9-7.2-3.2-12.3-3.2-12.4c-6.6-32.8,4.4-63.7,4.4-63.7l2.1-1.3v-2.4c-0.1-3.9,1.8-7.5,4.7-9.8L277.3,74l3.3,7.2
				C324.8,89.5,325.6,190.1,327.9,218.9z"/>
			<path class="st14" d="M317.8,271.1c-0.1,0.5-0.1,1-0.2,1.6c-2.3,16.2-21.4,66.9-31.4,79.3c-3.9,11.1-36.1,2.6-35.3-12.1l2.5-10.1
				c0.1-0.1,0.1-0.2,0.1-0.3l17.8-70.5l2.3-9.2c0.3-2,4.8-0.6,10.7,2.2C297.4,258,317.8,271.1,317.8,271.1z"/>
			<path class="st14" d="M284.7,483.9c7.7-35.2,4.2-84.8,1.5-131.9c1.1-13.1-1.8-28.1-13.2-29.3l-0.4,0
				c-11.3-1.2-21.4,8.4-22.5,21.4l2.1,130C263.1,481.2,271.1,483,284.7,483.9z"/>
			<path class="st14" d="M317.6,272.6c-4.2,3.5-9.3,5.7-14.8,6.1l-31.5,2.2v-50.5l12.1-2.5l44.4-9.1l1.3,25.2
				C329.9,255.7,325.2,266.3,317.6,272.6z"/>
			<path class="st17" d="M291.1,241.8c-2.3,2.9-4.5,6.3-6.7,10.1c-4.4,7.5-8.7,16.7-13.1,27.3c-6,14.5-11.9,31.6-17.8,50.2
				l17.8-70.5v-28.4c-4.7-9.8-12.8-39.3-17.3-56.2v-18l23.2-31.6c-5.6,29.6-4.9,75.7,6.2,103.4c0.6,1.6,1.3,3.2,2,4.6
				C287.2,236.1,289,239.2,291.1,241.8z"/>
			<path class="st14" d="M236.6,176.5l-65.8,37.6l3.9,17.7l69.3-23.8c6-1.6,11.2-5.9,13.4-12.2c1.6-4.5,1.7-9.4-0.3-13.2l-0.2-0.3
				C252.7,174.6,243.7,172,236.6,176.5z"/>
			<path class="st14" d="M279.2,135.5l-22.3,61.3l-31.3-6l23-66.5c2.5-8.6,11.8-22,22-18C270.5,106.3,287.1,113.1,279.2,135.5z"/>
		</g>
		<rect x="411.3" y="399" class="st1" width="66.8" height="26.3"/>
		<rect x="411.3" y="427.7" class="st18" width="66.8" height="9.4"/>
		<path class="st1" d="M428.7,358.4c2.4,6.9-7.7,16.6-12.8,15.9l-5.1-4.9l12.8-15.9L428.7,358.4z"/>
		<path class="st19" d="M464.7,394.5H440c-1.6,0-2.9-1.4-2.9-3.2v-10.3c0-1.8,1.3-3.2,2.9-3.2h24.6c1.6,0,2.9,1.4,2.9,3.2v10.3
			C467.6,393.1,466.3,394.5,464.7,394.5z"/>
		<rect x="440.5" y="381.5" class="st20" width="5.4" height="5.2"/>
		<rect x="447.8" y="381.5" class="st11" width="5.4" height="5.2"/>
	</g>
</g>
</svg>
