<?xml version="1.0" encoding="iso-8859-1"?>
<!-- Generator: Adobe Illustrator 19.0.0, SVG Export Plug-In . SVG Version: 6.00 Build 0)  -->
<svg version="1.1" id="Capa_1" xmlns="http://www.w3.org/2000/svg" xmlns:xlink="http://www.w3.org/1999/xlink" x="0px" y="0px"
	 viewBox="0 0 512 512" style="enable-background:new 0 0 512 512;" xml:space="preserve">
<path style="fill:#E8594A;" d="M211.862,185.379V0h-70.621v185.379L39.036,236.482C15.113,248.444,0,272.896,0,299.644V512h353.103
	V299.644c0-26.748-15.113-51.2-39.036-63.161L211.862,185.379z"/>
<polygon style="fill:#97D3E6;" points="423.724,229.517 344.276,211.862 397.241,0 476.69,17.655 "/>
<polygon style="fill:#F9B44D;" points="467.862,512 423.724,512 423.724,229.517 476.69,17.655 512,26.483 467.862,229.517 "/>
<g>
	<rect x="167.72" y="26.483" style="fill:#CF4F42;" width="17.655" height="17.655"/>
	<path style="fill:#CF4F42;" d="M353.103,512H0l44.138-44.138V308.966c0-19.5,15.81-35.31,35.31-35.31h194.207
		c19.5,0,35.31,15.81,35.31,35.31v158.897L353.103,512z"/>
	<polygon style="fill:#CF4F42;" points="44.138,467.862 0,512 353.103,512 308.966,467.862 	"/>
</g>
<g>
	
		<rect x="419.31" y="3.441" transform="matrix(0.2169 -0.9762 0.9762 0.2169 292.1897 452.5092)" style="fill:#7DBDD1;" width="17.655" height="81.39"/>
	
		<rect x="410.467" y="38.776" transform="matrix(0.2169 -0.9762 0.9762 0.2169 250.7712 471.5469)" style="fill:#7DBDD1;" width="17.655" height="81.39"/>
	
		<rect x="401.655" y="74.029" transform="matrix(0.2169 -0.9762 0.9762 0.2169 209.4565 490.5517)" style="fill:#7DBDD1;" width="17.655" height="81.39"/>
	
		<rect x="392.77" y="109.357" transform="matrix(0.2169 -0.9762 0.9762 0.2169 168.0115 509.5434)" style="fill:#7DBDD1;" width="17.655" height="81.39"/>
	
		<rect x="383.987" y="144.675" transform="matrix(0.2169 -0.9762 0.9762 0.2169 126.6561 528.6274)" style="fill:#7DBDD1;" width="17.655" height="81.39"/>
</g>
<g>
</g>
<g>
</g>
<g>
</g>
<g>
</g>
<g>
</g>
<g>
</g>
<g>
</g>
<g>
</g>
<g>
</g>
<g>
</g>
<g>
</g>
<g>
</g>
<g>
</g>
<g>
</g>
<g>
</g>
</svg>
