<?xml version="1.0" encoding="iso-8859-1"?>
<!-- Generator: Adobe Illustrator 19.0.0, SVG Export Plug-In . SVG Version: 6.00 Build 0)  -->
<svg version="1.1" id="Capa_1" xmlns="http://www.w3.org/2000/svg" xmlns:xlink="http://www.w3.org/1999/xlink" x="0px" y="0px"
	 viewBox="0 0 512 512" style="enable-background:new 0 0 512 512;" xml:space="preserve">
<path style="fill:#4398D1;" d="M229.517,512H52.966C23.711,512,0,488.289,0,459.034l0,0v-103.45
	c0-23.614,11.802-45.656,31.444-58.756l56.7-37.791c11.599-7.733,25.229-11.864,39.168-11.864h75.723
	c19.5,0,35.31,15.81,35.31,35.31v220.69L229.517,512z"/>
<path style="fill:#398CC4;" d="M210.582,248.055l-73.207,48.808c-19.633,13.091-31.435,35.125-31.444,58.721v103.45
	c0,29.255,23.711,52.966,52.966,52.966l0,0h70.621l8.828-8.828v-220.69C238.31,265.913,226.763,251.595,210.582,248.055z"/>
<path style="fill:#97D3E6;" d="M137.375,296.828l65.66-43.767v-5.888h-75.723c-13.939,0-27.569,4.122-39.168,11.864l-56.7,37.791
	C11.802,309.928,0,331.97,0,355.584v85.795h105.931v-85.795C105.931,331.97,117.734,309.928,137.375,296.828z"/>
<g>
	<circle style="fill:#266599;" cx="229.52" cy="467.86" r="44.14"/>
	<polygon style="fill:#266599;" points="450.207,459.034 441.379,414.897 406.069,414.897 397.241,459.034 335.448,459.034 
		335.448,512 512,512 512,459.034 	"/>
</g>
<rect x="406.07" y="132.41" style="fill:#4398D1;" width="35.31" height="282.48"/>
<rect x="167.72" y="211.86" style="fill:#398CC4;" width="35.31" height="35.31"/>
<path style="fill:#97D3E6;" d="M167.724,211.862v-35.31c0-19.5-15.81-35.31-35.31-35.31H79.448c-39,0-70.621-31.62-70.621-70.621
	l0,0C8.828,31.62,40.448,0,79.448,0h291.31c39,0,70.621,31.62,70.621,70.621v61.793h-35.31V70.621c0-19.5-15.81-35.31-35.31-35.31
	H79.448c-19.5,0-35.31,15.81-35.31,35.31l0,0c0,19.5,15.81,35.31,35.31,35.31h52.966c39,0,70.621,31.62,70.621,70.621v35.31H167.724
	z"/>
<g>
	<rect x="26.483" y="361.93" style="fill:#EBEBEB;" width="17.655" height="17.655"/>
	<rect x="61.793" y="361.93" style="fill:#EBEBEB;" width="17.655" height="17.655"/>
</g>
<path style="fill:#7DBDD1;" d="M151.155,432.878l39.521-33.871c7.848-6.709,12.359-16.516,12.359-26.836V253.06l-65.66,43.767
	c-19.641,13.1-31.444,35.143-31.444,58.756v85.795h22.246C136.607,441.379,144.755,438.36,151.155,432.878z"/>
<rect y="397.24" style="fill:#EBEBEB;" width="105.93" height="17.655"/>
<g>
</g>
<g>
</g>
<g>
</g>
<g>
</g>
<g>
</g>
<g>
</g>
<g>
</g>
<g>
</g>
<g>
</g>
<g>
</g>
<g>
</g>
<g>
</g>
<g>
</g>
<g>
</g>
<g>
</g>
</svg>
