<?xml version="1.0" encoding="iso-8859-1"?>
<!-- Generator: Adobe Illustrator 19.0.0, SVG Export Plug-In . SVG Version: 6.00 Build 0)  -->
<svg version="1.1" id="Capa_1" xmlns="http://www.w3.org/2000/svg" xmlns:xlink="http://www.w3.org/1999/xlink" x="0px" y="0px"
	 viewBox="0 0 512 512" style="enable-background:new 0 0 512 512;" xml:space="preserve">
<polygon style="fill:#97D3E6;" points="451.254,108.475 208.271,108.475 208.271,56.407 269.017,4.339 451.254,4.339 "/>
<circle style="fill:#EBEBEB;" cx="199.59" cy="256" r="199.59"/>
<path style="fill:#D4D4D4;" d="M91.986,182.784l-14.345-9.771c23.821-35.016,61.535-58.108,103.554-63.393l2.152,17.217
	C146.276,131.506,112.996,151.89,91.986,182.784z"/>
<path style="fill:#97D3E6;" d="M303.729,47.729l-56.407,56.407c-7.185,7.194-7.185,18.84,0,26.034l0,0
	c7.194,7.185,18.84,7.185,26.034,0l56.407-56.407"/>
<rect x="451.25" y="13.02" style="fill:#FBCCAD;" width="60.746" height="86.78"/>
<path style="fill:#F9B44D;" d="M34.712,73.763L34.712,73.763C31.744,55.964,17.799,42.019,0,39.051l0,0
	c17.799-2.968,31.744-16.913,34.712-34.712l0,0c2.968,17.799,16.913,31.744,34.712,34.712l0,0
	C51.625,42.019,37.68,55.964,34.712,73.763z"/>
<rect x="60.746" y="177.9" style="fill:#6BA567;" width="234.31" height="156.2"/>
<path style="fill:#BEE3ED;" d="M60.746,368.814v86.78c0,9.589,7.767,17.356,17.356,17.356l0,0c9.589,0,17.356-7.767,17.356-17.356
	l0,0c0-9.589,7.767-17.356,17.356-17.356l0,0c9.589,0,17.356,7.767,17.356,17.356v34.712c0,9.589,7.767,17.356,17.356,17.356l0,0
	c9.589,0,17.356-7.767,17.356-17.356V368.814H60.746z"/>
<g>
	<rect x="86.78" y="203.93" style="fill:#558751;" width="17.356" height="17.356"/>
	<rect x="121.49" y="221.29" style="fill:#558751;" width="17.356" height="17.356"/>
	<rect x="156.2" y="203.93" style="fill:#558751;" width="17.356" height="17.356"/>
</g>
<rect x="60.746" y="334.1" style="fill:#F9B44D;" width="234.31" height="34.712"/>
<path style="fill:#97D3E6;" d="M286.373,264.678l-56.407-56.407c-7.194-7.185-18.84-7.185-26.034,0l0,0
	c-7.185,7.194-7.185,18.84,0,26.034l30.373,30.373h-95.458c-9.589,0-17.356,7.767-17.356,17.356v104.136
	c0,9.589,7.767,17.356,17.356,17.356h295.051V264.678H286.373z"/>
<rect x="433.9" y="290.71" style="fill:#FBCCAD;" width="78.1" height="86.78"/>
<g>
	<rect x="121.49" y="360.14" style="fill:#7DBDD1;" width="78.1" height="17.356"/>
	<rect x="121.49" y="325.42" style="fill:#7DBDD1;" width="78.1" height="17.356"/>
	<rect x="121.49" y="290.71" style="fill:#7DBDD1;" width="78.1" height="17.356"/>
</g>
<path style="fill:#93CEE0;" d="M433.898,264.678h-61.102c-32.308,56.789-78.379,104.543-133.988,138.847h195.089L433.898,264.678
	L433.898,264.678z"/>
<g>
</g>
<g>
</g>
<g>
</g>
<g>
</g>
<g>
</g>
<g>
</g>
<g>
</g>
<g>
</g>
<g>
</g>
<g>
</g>
<g>
</g>
<g>
</g>
<g>
</g>
<g>
</g>
<g>
</g>
</svg>
