<?xml version="1.0" encoding="iso-8859-1"?>
<!-- Generator: Adobe Illustrator 19.0.0, SVG Export Plug-In . SVG Version: 6.00 Build 0)  -->
<svg version="1.1" id="Capa_1" xmlns="http://www.w3.org/2000/svg" xmlns:xlink="http://www.w3.org/1999/xlink" x="0px" y="0px"
	 viewBox="0 0 512 512" style="enable-background:new 0 0 512 512;" xml:space="preserve">
<polyline style="fill:#4398D1;" points="454.62,353.103 454.62,512 13.24,512 13.24,0 454.62,0 454.62,229.517 "/>
<polyline style="fill:#97D3E6;" points="419.309,370.759 419.309,476.69 48.551,476.69 48.551,35.31 419.309,35.31 419.309,220.69 
	"/>
<polygon style="fill:#4398D1;" points="295.723,114.759 127.999,282.483 101.516,255.744 269.24,88.276 "/>
<polygon style="fill:#EBEBEB;" points="383.999,344.276 357.516,370.759 216.275,229.517 189.792,220.69 233.93,176.552 
	242.758,203.034 "/>
<g>
	
		<rect x="79.884" y="101.505" transform="matrix(0.7071 -0.7071 0.7071 0.7071 -41.823 119.6954)" style="fill:#B6E2F0;" width="87.379" height="17.655"/>
	
		<rect x="68.936" y="127.994" transform="matrix(0.7071 -0.7071 0.7071 0.7071 -52.7898 146.1971)" style="fill:#B6E2F0;" width="162.288" height="17.655"/>
</g>
<path style="fill:#EBEBEB;" d="M172.137,450.207c-14.627,0-26.483-11.855-26.483-26.483v-35.31c0-4.873-3.955-8.828-8.828-8.828
	s-8.828,3.955-8.828,8.828v8.828c0,14.627-11.855,26.483-26.483,26.483s-26.483-11.855-26.483-26.483v-44.138h17.657v44.138
	c0,4.873,3.955,8.828,8.828,8.828s8.828-3.955,8.828-8.828v-8.828c0-14.627,11.855-26.483,26.483-26.483
	s26.483,11.855,26.483,26.483v35.31c0,4.873,3.955,8.828,8.828,8.828s8.828-3.955,8.828-8.828v-26.483h17.655v26.483
	C198.62,438.351,186.764,450.207,172.137,450.207z"/>
<polygon style="fill:#F5A338;" points="313.378,256 295.723,220.69 269.24,220.69 269.24,256 225.102,256 225.102,326.621 
	419.309,344.276 419.309,247.172 "/>
<rect x="419.309" y="256" style="fill:#FBCCAD;" width="79.45" height="70.62"/>
<g>
	
		<rect x="339.87" y="117.798" transform="matrix(0.7071 -0.7071 0.7071 0.7071 -16.4739 295.6939)" style="fill:#B6E2F0;" width="17.655" height="99.869"/>
	
		<rect x="172.128" y="285.497" transform="matrix(0.7071 -0.7071 0.7071 0.7071 -184.1855 226.2006)" style="fill:#B6E2F0;" width="17.655" height="99.869"/>
</g>
<g>
</g>
<g>
</g>
<g>
</g>
<g>
</g>
<g>
</g>
<g>
</g>
<g>
</g>
<g>
</g>
<g>
</g>
<g>
</g>
<g>
</g>
<g>
</g>
<g>
</g>
<g>
</g>
<g>
</g>
</svg>
